<svg xmlns="http://www.w3.org/2000/svg" width="512" height="512" viewBox="0 0 512 512" version="1.1"><path d="M 358.396 65.358 C 356.139 66.098, 352.245 68.111, 349.743 69.833 C 347.241 71.554, 344.363 74.098, 343.347 75.486 C 341.500 78.009, 341.500 78.009, 317 71.514 C 303.525 67.942, 290.414 65.016, 287.864 65.010 C 284.727 65.003, 281.494 65.901, 277.864 67.787 C 274.298 69.640, 271.490 72.073, 269.485 75.047 C 267.107 78.577, 264.589 86.592, 257.559 113.011 C 252.657 131.430, 246.813 153.250, 244.573 161.500 C 240.499 176.500, 240.499 176.500, 232 177.194 C 227.325 177.576, 220.575 178.410, 217 179.048 C 213.425 179.686, 206 181.322, 200.500 182.683 C 195 184.044, 186.225 186.755, 181 188.706 C 175.775 190.657, 166.580 194.716, 160.567 197.727 C 154.553 200.737, 146.767 205.011, 143.263 207.224 C 136.892 211.247, 136.892 211.247, 134.696 209.237 C 133.488 208.131, 130.475 206.206, 128 204.960 C 125.525 203.714, 121.250 202.094, 118.500 201.359 C 115.750 200.625, 111.025 200.024, 108 200.024 C 104.975 200.024, 100.250 200.626, 97.500 201.361 C 94.750 202.097, 90.079 203.929, 87.119 205.433 C 84.160 206.936, 79.585 210.320, 76.952 212.952 C 74.320 215.585, 70.936 220.160, 69.433 223.119 C 67.929 226.079, 66.097 230.750, 65.361 233.500 C 64.626 236.250, 64.024 240.975, 64.024 244 C 64.024 247.025, 64.626 251.750, 65.361 254.500 C 66.097 257.250, 67.945 261.952, 69.468 264.950 C 70.990 267.947, 74.664 272.733, 77.632 275.584 C 80.600 278.436, 84.259 281.279, 85.764 281.903 C 88.500 283.037, 88.500 283.037, 88.538 296.268 C 88.568 306.741, 89.043 311.238, 90.817 317.837 C 92.050 322.422, 94.396 329.122, 96.030 332.726 C 97.664 336.330, 101.559 343.153, 104.685 347.889 C 107.851 352.686, 114.622 360.708, 119.971 366 C 125.252 371.225, 133.606 378.254, 138.536 381.621 C 143.466 384.987, 151.325 389.782, 156 392.276 C 160.675 394.770, 169.675 398.859, 176 401.362 C 182.325 403.866, 193.107 407.282, 199.959 408.953 C 206.812 410.625, 217.387 412.771, 223.459 413.722 C 231.357 414.960, 240.479 415.450, 255.500 415.444 C 267.422 415.440, 280.391 414.873, 285.500 414.134 C 290.450 413.418, 299.607 411.713, 305.848 410.344 C 312.090 408.975, 322.440 406.057, 328.848 403.859 C 335.257 401.660, 345.008 397.660, 350.518 394.968 C 356.028 392.277, 364.578 387.405, 369.518 384.143 C 374.458 380.881, 382.100 375.071, 386.500 371.232 C 390.900 367.394, 396.975 361.253, 400 357.585 C 403.025 353.917, 407.440 347.750, 409.812 343.880 C 412.183 340.010, 415.440 333.554, 417.050 329.534 C 418.659 325.515, 420.742 319.137, 421.677 315.363 C 422.797 310.845, 423.399 304.221, 423.439 295.973 C 423.500 283.446, 423.500 283.446, 428.900 279.973 C 431.917 278.033, 436.192 273.951, 438.588 270.725 C 440.946 267.548, 443.839 262.374, 445.017 259.226 C 446.194 256.078, 447.407 250.527, 447.712 246.891 C 448.039 242.997, 447.744 238.065, 446.996 234.890 C 446.296 231.925, 444.445 226.943, 442.882 223.817 C 441.318 220.691, 437.752 215.847, 434.957 213.052 C 432.162 210.257, 427.541 206.784, 424.688 205.335 C 421.834 203.885, 417.250 202.097, 414.500 201.361 C 411.750 200.626, 407.025 200.024, 404 200.024 C 400.975 200.024, 396.250 200.625, 393.500 201.359 C 390.750 202.094, 386.475 203.714, 384 204.960 C 381.525 206.206, 378.512 208.131, 377.304 209.237 C 375.108 211.247, 375.108 211.247, 368.743 207.228 C 365.243 205.017, 357.789 200.905, 352.178 198.089 C 346.567 195.274, 338.555 191.611, 334.374 189.950 C 330.193 188.289, 322.155 185.634, 316.512 184.049 C 310.870 182.465, 302.484 180.471, 297.876 179.618 C 293.269 178.766, 284.325 177.561, 278 176.942 C 271.675 176.322, 266.346 175.665, 266.157 175.481 C 265.968 175.298, 270.395 158.127, 275.993 137.324 C 281.592 116.521, 286.850 97.105, 287.678 94.178 C 288.577 91.002, 289.651 89.035, 290.342 89.298 C 290.979 89.541, 300.275 92.074, 311 94.927 C 321.725 97.779, 331.870 100.543, 333.545 101.067 C 336.001 101.835, 336.811 102.845, 337.730 106.281 C 338.357 108.624, 340.444 112.604, 342.369 115.124 C 344.293 117.644, 348.035 121.092, 350.684 122.785 C 353.333 124.478, 357.664 126.404, 360.309 127.065 C 362.956 127.727, 367.782 128.025, 371.045 127.730 C 374.304 127.434, 379.104 126.160, 381.710 124.899 C 384.316 123.637, 388.283 120.769, 390.526 118.526 C 392.769 116.283, 395.706 112.210, 397.052 109.474 C 399.076 105.361, 399.496 103.029, 399.475 96 C 399.455 89.037, 399.007 86.596, 396.999 82.500 C 395.651 79.750, 392.725 75.676, 390.498 73.448 C 388.270 71.219, 384.257 68.335, 381.579 67.038 C 378.234 65.419, 374.485 64.577, 369.605 64.348 C 365.432 64.152, 360.806 64.569, 358.396 65.358 M 184.500 240.868 C 182.850 241.301, 179.700 242.512, 177.500 243.557 C 175.300 244.603, 171.689 247.268, 169.476 249.479 C 167.263 251.691, 164.361 255.750, 163.027 258.500 C 161.042 262.592, 160.602 265.044, 160.602 272 C 160.602 278.729, 161.061 281.444, 162.808 285.031 C 164.021 287.523, 166.327 291.154, 167.932 293.101 C 169.537 295.048, 173.696 298.176, 177.175 300.052 C 182.972 303.178, 184.210 303.461, 192 303.441 C 199.223 303.422, 201.267 303.020, 205.607 300.765 C 208.417 299.305, 212.054 296.984, 213.691 295.607 C 215.327 294.230, 218.196 290.267, 220.065 286.801 C 223.176 281.031, 223.461 279.784, 223.441 272 C 223.422 264.777, 223.020 262.733, 220.765 258.393 C 219.305 255.583, 216.984 251.946, 215.607 250.309 C 214.230 248.673, 210.380 245.882, 207.052 244.109 C 202.412 241.635, 199.429 240.790, 194.251 240.482 C 190.538 240.260, 186.150 240.434, 184.500 240.868 M 312.500 240.868 C 310.850 241.301, 307.700 242.512, 305.500 243.557 C 303.300 244.603, 299.689 247.268, 297.476 249.479 C 295.263 251.691, 292.361 255.750, 291.027 258.500 C 289.042 262.592, 288.602 265.044, 288.602 272 C 288.602 278.956, 289.042 281.408, 291.027 285.500 C 292.361 288.250, 295.275 292.324, 297.502 294.552 C 299.730 296.781, 303.790 299.706, 306.526 301.052 C 310.628 303.071, 312.991 303.498, 320 303.490 C 326.579 303.483, 329.561 302.992, 333.196 301.320 C 335.779 300.132, 339.853 297.200, 342.249 294.804 C 344.645 292.408, 347.706 288.210, 349.052 285.474 C 351.072 281.369, 351.498 279.015, 351.486 272 C 351.474 264.734, 351.083 262.759, 348.791 258.393 C 347.317 255.583, 344.984 251.946, 343.607 250.309 C 342.230 248.673, 338.380 245.882, 335.052 244.109 C 330.412 241.635, 327.429 240.790, 322.251 240.482 C 318.538 240.260, 314.150 240.434, 312.500 240.868 M 186.190 342.026 C 184.354 343.145, 182.202 345.665, 181.359 347.684 C 180.456 349.846, 180.079 352.608, 180.431 354.486 C 180.758 356.226, 182.257 358.804, 183.762 360.215 C 185.268 361.626, 189.650 364.141, 193.500 365.805 C 197.350 367.469, 204.123 369.998, 208.551 371.426 C 212.980 372.853, 219.730 374.680, 223.551 375.485 C 227.373 376.291, 235.225 377.469, 241 378.104 C 247.191 378.784, 256.629 378.998, 264 378.624 C 270.875 378.275, 280.785 377.137, 286.023 376.094 C 291.260 375.051, 299.810 372.782, 305.023 371.051 C 310.235 369.321, 317.425 366.463, 321 364.702 C 325.197 362.635, 328.297 360.296, 329.750 358.102 C 330.988 356.233, 331.998 353.533, 331.996 352.102 C 331.994 350.671, 331.114 348.059, 330.040 346.299 C 328.967 344.538, 326.659 342.358, 324.912 341.455 C 323.076 340.505, 320.420 340.008, 318.618 340.276 C 316.903 340.532, 311.549 342.403, 306.721 344.435 C 301.892 346.467, 293.760 349.191, 288.649 350.487 C 283.538 351.784, 274.665 353.390, 268.932 354.056 C 262.877 354.760, 254.458 355.003, 248.848 354.635 C 243.535 354.287, 235.801 353.354, 231.662 352.562 C 227.523 351.770, 221.220 350.222, 217.655 349.120 C 214.090 348.019, 207.304 345.517, 202.575 343.559 C 197.846 341.602, 192.969 340.002, 191.738 340.004 C 190.507 340.006, 188.010 340.916, 186.190 342.026 M 237.895 422.187 C 237.838 422.909, 237.862 428.132, 237.949 433.794 C 238.036 439.456, 237.828 444.966, 237.488 446.039 C 236.907 447.867, 236.632 447.798, 233.073 444.938 C 229.994 442.464, 228.325 441.880, 224.240 441.849 C 221.470 441.827, 217.574 442.583, 215.582 443.528 C 213.590 444.473, 211.051 446.524, 209.939 448.086 C 208.827 449.648, 206.771 454.655, 205.370 459.213 C 203.716 464.596, 202.767 470.190, 202.662 475.176 C 202.509 482.408, 202.670 483.031, 205.437 485.926 C 207.052 487.617, 209.105 489, 209.999 489 C 210.893 489, 213.396 488.135, 215.562 487.077 C 217.728 486.019, 221.351 483.206, 223.612 480.827 C 225.874 478.447, 229.546 474.149, 231.772 471.275 C 235.819 466.049, 235.819 466.049, 236.462 471.275 C 236.816 474.149, 237.338 477.716, 237.622 479.203 C 237.906 480.690, 239.040 483.052, 240.142 484.453 C 241.244 485.854, 242.755 487, 243.500 487 C 244.245 487, 245.788 485.814, 246.927 484.365 C 248.067 482.916, 249 481.125, 249 480.384 C 249 479.644, 247.920 478.767, 246.601 478.436 C 245.025 478.040, 244.025 476.918, 243.688 475.167 C 243.406 473.700, 243.291 468.225, 243.432 463 C 243.572 457.775, 244.221 449, 244.874 443.500 C 245.586 437.497, 245.748 431.102, 245.280 427.500 C 244.519 421.649, 244.419 421.492, 241.250 421.187 C 239.110 420.980, 237.964 421.322, 237.895 422.187 M 278.082 434.608 C 276.492 435.276, 273.010 438.001, 270.345 440.662 C 267.680 443.323, 264.894 447.075, 264.153 449 C 263.413 450.925, 261.748 455.417, 260.454 458.982 C 258.702 463.811, 258.253 466.617, 258.693 469.982 C 259.018 472.467, 260.336 476.325, 261.623 478.555 C 262.909 480.785, 265.658 483.551, 267.731 484.700 C 269.804 485.849, 274.264 487.101, 277.642 487.480 C 281.899 487.959, 285.581 487.706, 289.642 486.655 C 292.864 485.822, 297.075 484.402, 299 483.501 C 300.925 482.599, 303.663 481.229, 305.085 480.456 C 306.506 479.682, 309.769 477.094, 312.335 474.705 C 315.133 472.099, 317 469.488, 317 468.180 C 317 466.911, 316.375 466, 315.503 466 C 314.679 466, 312.317 467.522, 310.253 469.382 C 308.189 471.243, 304.700 473.777, 302.500 475.013 C 300.300 476.249, 296.025 478.057, 293 479.031 C 289.975 480.005, 285.105 480.839, 282.179 480.884 C 279.252 480.930, 275.331 480.329, 273.465 479.550 C 271.022 478.529, 269.463 476.835, 267.893 473.496 C 265.887 469.229, 265.813 468.405, 266.959 463.179 C 267.644 460.056, 269.566 455.093, 271.231 452.152 C 272.896 449.211, 275.535 445.498, 277.096 443.902 C 279.393 441.552, 280.786 441, 284.419 441 C 286.887 441, 289.986 441.492, 291.305 442.093 C 293.216 442.964, 293.887 444.317, 294.602 448.746 C 295.136 452.053, 296.168 454.723, 297.149 455.334 C 298.360 456.089, 299.488 455.910, 301.399 454.658 C 303.437 453.323, 303.997 452.147, 303.985 449.227 C 303.977 447.177, 303.415 444.411, 302.735 443.079 C 302.056 441.748, 299.262 439.285, 296.527 437.607 C 293.374 435.674, 289.616 434.343, 286.263 433.974 C 283.041 433.619, 279.844 433.867, 278.082 434.608 M 96.442 438.094 C 96.134 438.592, 94.178 439, 92.096 439 C 89.698 439, 87.703 439.671, 86.655 440.829 C 85.745 441.835, 85 443.358, 85 444.214 C 85 445.070, 86.060 446.465, 87.357 447.314 C 89.498 448.717, 89.866 448.705, 91.393 447.179 C 92.867 445.705, 93.187 445.683, 94.014 447 C 94.532 447.825, 94.894 455.250, 94.819 463.500 C 94.744 471.750, 94.782 480.413, 94.904 482.750 C 95.097 486.462, 95.418 487, 97.440 487 C 98.713 487, 100.278 486.370, 100.918 485.599 C 101.610 484.764, 102.029 481.028, 101.954 476.349 C 101.885 472.032, 102.092 463.576, 102.415 457.559 C 102.791 450.537, 103.448 446.304, 104.250 445.743 C 104.938 445.262, 110.900 445.100, 117.500 445.384 C 124.830 445.699, 131.446 446.558, 134.500 447.592 C 137.250 448.522, 140.063 449.725, 140.750 450.264 C 141.438 450.804, 142 451.568, 142 451.962 C 142 452.356, 140.876 453.191, 139.502 453.817 C 138.128 454.443, 133.965 455.669, 130.252 456.541 C 126.538 457.413, 119.511 458.191, 114.635 458.270 C 106.505 458.401, 105.685 458.598, 104.753 460.643 C 104.194 461.869, 104.007 463.576, 104.337 464.436 C 104.667 465.296, 105.673 466, 106.572 466 C 107.471 466, 111.648 468.813, 115.853 472.250 C 120.059 475.688, 125.042 479.585, 126.927 480.911 C 128.812 482.237, 133.537 484.203, 137.427 485.280 C 141.317 486.357, 145.175 487.231, 146 487.221 C 146.825 487.211, 149.932 486.913, 152.905 486.559 C 155.878 486.205, 159.510 485.061, 160.975 484.018 C 163.640 482.120, 163.640 482.120, 165.372 485.053 C 166.325 486.666, 168.094 488.518, 169.302 489.168 C 170.511 489.818, 173.268 490.676, 175.429 491.074 C 178.232 491.590, 180.382 491.324, 182.929 490.148 C 184.893 489.242, 187.095 487.938, 187.821 487.250 C 188.548 486.563, 189.554 486, 190.057 486 C 190.560 486, 192.116 484.271, 193.515 482.157 C 195.019 479.884, 195.798 477.638, 195.422 476.657 C 195.072 475.746, 194.179 475, 193.437 475 C 192.696 475, 189.519 476.800, 186.379 479 C 182.173 481.946, 179.677 483, 176.906 483 C 174.818 483, 172.443 482.300, 171.571 481.429 C 170.629 480.486, 170.014 478.185, 170.035 475.679 C 170.055 473.380, 170.617 470.600, 171.285 469.500 C 171.967 468.378, 173.818 467.365, 175.500 467.193 C 177.150 467.025, 180.750 465.534, 183.500 463.881 C 186.884 461.847, 189.127 459.583, 190.440 456.878 C 191.507 454.679, 192.443 452.029, 192.519 450.987 C 192.596 449.946, 192.076 447.707, 191.363 446.013 C 190.584 444.158, 188.789 442.394, 186.854 441.581 C 184.666 440.661, 182.816 440.517, 181.058 441.130 C 179.637 441.625, 177.212 443.261, 175.669 444.765 C 174.126 446.269, 171.981 448.996, 170.902 450.823 C 169.823 452.651, 168.391 453.962, 167.720 453.737 C 166.870 453.452, 165.994 456.682, 164.832 464.388 C 163.501 473.213, 162.735 475.796, 161.039 477.169 C 159.870 478.116, 156.861 479.198, 154.352 479.574 C 151.843 479.951, 146.575 479.731, 142.645 479.086 C 138.359 478.383, 134.008 476.931, 131.771 475.457 C 129.721 474.106, 127.814 473, 127.535 473 C 127.256 473, 125.458 471.313, 123.541 469.250 C 121.623 467.188, 120.042 465.184, 120.027 464.799 C 120.012 464.413, 121.912 464.162, 124.250 464.241 C 126.588 464.321, 129.400 463.929, 130.500 463.371 C 131.600 462.813, 135.200 461.523, 138.500 460.504 C 142 459.423, 145.646 457.467, 147.250 455.809 C 148.762 454.247, 150 452.367, 150 451.632 C 150 450.897, 148.988 448.831, 147.750 447.042 C 146.210 444.814, 143.765 443.153, 140 441.777 C 136.975 440.671, 131.575 439.407, 128 438.969 C 124.425 438.531, 115.988 437.951, 109.251 437.681 C 102.416 437.406, 96.754 437.589, 96.442 438.094 M 367.194 445.750 C 366.712 446.712, 366.587 450.453, 366.916 454.062 C 367.245 457.671, 367.252 462.233, 366.933 464.200 C 366.613 466.166, 366.385 471.404, 366.426 475.838 C 366.469 480.590, 366.983 484.384, 367.677 485.077 C 368.332 485.732, 369.934 485.982, 371.289 485.642 C 372.847 485.251, 374.946 483.014, 377.113 479.435 C 378.976 476.357, 380.979 473.312, 381.564 472.669 C 382.150 472.026, 384.338 468.800, 386.426 465.500 C 388.515 462.200, 391.356 457.992, 392.740 456.149 C 394.658 453.594, 395.460 453.119, 396.113 454.149 C 396.584 454.892, 396.976 460.138, 396.985 465.807 C 396.993 471.476, 397.507 478.128, 398.127 480.590 C 398.747 483.052, 399.984 485.448, 400.877 485.915 C 401.770 486.382, 403.482 486.393, 404.681 485.940 C 405.881 485.486, 408.753 482.727, 411.063 479.808 C 413.373 476.888, 415.749 473.375, 416.342 472 C 416.935 470.625, 418.676 468.022, 420.210 466.215 C 423 462.930, 423 462.930, 423 466.928 C 423 469.126, 423.931 473.413, 425.069 476.454 C 426.206 479.495, 428.106 482.662, 429.291 483.491 C 430.476 484.321, 432.979 485, 434.854 485 C 436.730 485, 439.757 484.077, 441.582 482.950 C 443.406 481.822, 445.881 479.310, 447.082 477.368 C 449.099 474.104, 449.141 473.712, 447.635 472.207 C 446.130 470.701, 445.673 470.904, 441.618 474.884 C 438.897 477.555, 436.521 479.060, 435.365 478.845 C 434.339 478.655, 432.641 476.741, 431.592 474.591 C 430.139 471.616, 429.712 468.701, 429.805 462.387 C 429.872 457.785, 430.472 453.217, 431.153 452.127 C 432.131 450.560, 432.114 449.842, 431.067 448.581 C 430.346 447.712, 428.491 447, 426.945 447 C 424.927 447, 423.938 447.621, 423.436 449.202 C 423.052 450.412, 419.759 455.571, 416.119 460.666 C 412.478 465.760, 408.733 471.294, 407.797 472.964 C 406.860 474.634, 405.622 476, 405.047 476 C 404.389 476, 404 472.342, 404 466.149 C 404 460.731, 403.488 454.769, 402.861 452.899 C 402.235 451.030, 400.807 448.488, 399.687 447.250 C 398.567 446.012, 396.855 445, 395.881 445 C 394.907 445, 390.935 448.603, 387.055 453.006 C 383.175 457.410, 380 461.441, 380 461.966 C 380 462.490, 378.766 464.962, 377.257 467.459 C 375.749 469.957, 374.262 472, 373.953 472 C 373.644 472, 373.581 466.669, 373.813 460.154 C 374.092 452.346, 373.843 447.574, 373.083 446.154 C 372.448 444.969, 371.061 444, 370 444 C 368.939 444, 367.676 444.788, 367.194 445.750 M 333.376 446.462 C 333.068 447.266, 331.957 448.196, 330.908 448.529 C 329.858 448.862, 329 449.597, 329 450.163 C 329 450.729, 328.055 452.519, 326.899 454.142 C 325.744 455.764, 324.195 459.434, 323.459 462.296 C 322.722 465.158, 321.576 469.312, 320.913 471.527 C 320.178 473.977, 319.981 477.385, 320.408 480.234 C 320.794 482.808, 321.877 485.862, 322.815 487.020 C 323.835 488.280, 326.157 489.345, 328.592 489.672 C 331.732 490.093, 333.983 489.594, 338.435 487.487 C 341.610 485.985, 345.807 483.352, 347.762 481.636 C 349.717 479.919, 352.366 476.261, 353.649 473.507 C 355.061 470.475, 355.984 466.611, 355.990 463.710 C 355.996 460.951, 355.193 457.348, 354.097 455.210 C 353.051 453.170, 351.138 450.517, 349.847 449.317 C 348.556 448.116, 346.233 446.653, 344.685 446.067 C 343.137 445.480, 340.085 445, 337.904 445 C 335.346 445, 333.738 445.519, 333.376 446.462 M 181.305 449.499 C 180.127 450.324, 178.176 452.598, 176.968 454.552 C 175.760 456.506, 175.006 458.339, 175.291 458.625 C 175.577 458.911, 177.634 457.993, 179.863 456.587 C 182.091 455.180, 184.404 453.113, 185.003 451.994 C 185.602 450.875, 185.820 449.518, 185.487 448.979 C 185.154 448.441, 184.559 448, 184.163 448 C 183.768 448, 182.482 448.675, 181.305 449.499 M 216.666 451.827 C 215.127 453.433, 213.036 457.642, 211.823 461.577 C 210.649 465.384, 209.494 471.087, 209.256 474.250 C 208.959 478.180, 209.188 480, 209.977 480 C 210.612 480, 212.114 479.480, 213.316 478.845 C 214.517 478.210, 217.509 475.931, 219.965 473.780 C 222.421 471.629, 225.346 468.375, 226.465 466.549 C 227.584 464.723, 229.832 461.325, 231.461 458.997 C 234.421 454.765, 234.421 454.765, 231.195 451.883 C 228.700 449.654, 226.994 449, 223.671 449 C 220.261 449, 218.816 449.583, 216.666 451.827 M 336.197 454.904 C 334.471 457.052, 331.876 461.439, 330.431 464.654 C 328.940 467.971, 327.570 473.204, 327.264 476.750 C 326.843 481.643, 327.027 483.023, 328.113 483.106 C 328.876 483.164, 330.850 483.124, 332.500 483.016 C 334.150 482.909, 337.012 481.894, 338.860 480.761 C 340.707 479.628, 343.189 477.756, 344.373 476.601 C 345.558 475.445, 347.194 473.199, 348.009 471.608 C 348.824 470.017, 349.414 466.760, 349.322 464.370 C 349.220 461.745, 348.270 458.733, 346.922 456.762 C 345.694 454.968, 343.999 452.938, 343.154 452.250 C 342.309 451.563, 341.104 451, 340.476 451 C 339.848 451, 337.923 452.757, 336.197 454.904" stroke="none" fill="#fcfbfa" fill-rule="evenodd"/><path d="M 105.500 1.615 C 101.100 2.404, 93.900 4.147, 89.500 5.489 C 85.100 6.831, 77.675 9.781, 73 12.045 C 68.325 14.308, 60.811 18.612, 56.303 21.608 C 51.794 24.605, 44.465 30.482, 40.015 34.668 C 35.565 38.854, 29.007 46.154, 25.442 50.890 C 21.877 55.625, 16.717 63.853, 13.976 69.173 C 11.235 74.493, 7.686 82.839, 6.091 87.720 C 4.496 92.602, 2.453 101.074, 1.550 106.548 C 0.071 115.516, -0.059 130.741, 0.229 260.500 C 0.548 404.500, 0.548 404.500, 2.801 413 C 4.040 417.675, 6.234 424.650, 7.676 428.500 C 9.118 432.350, 11.630 438.200, 13.259 441.500 C 14.887 444.800, 18.741 451.325, 21.824 456 C 24.936 460.720, 31.891 468.947, 37.464 474.501 C 42.984 480.002, 51.325 487.040, 56 490.141 C 60.675 493.242, 67.200 497.112, 70.500 498.741 C 73.800 500.369, 79.650 502.882, 83.500 504.324 C 87.350 505.766, 94.325 507.960, 99 509.199 C 107.500 511.452, 107.500 511.452, 251.500 511.771 C 381.259 512.059, 396.484 511.929, 405.452 510.450 C 410.926 509.547, 419.398 507.504, 424.280 505.909 C 429.161 504.314, 437.507 500.765, 442.827 498.024 C 448.147 495.283, 456.338 490.151, 461.028 486.620 C 465.718 483.089, 472.765 476.822, 476.686 472.694 C 480.608 468.565, 486.149 461.883, 489.001 457.844 C 491.852 453.805, 496.198 446.513, 498.658 441.639 C 501.118 436.766, 504.405 428.880, 505.963 424.114 C 507.520 419.349, 509.368 411.862, 510.070 407.475 C 510.773 403.089, 511.719 399.072, 512.174 398.550 C 512.628 398.027, 513 333.313, 513 254.741 C 513 159.756, 512.665 112.089, 512 112.500 C 511.424 112.856, 510.997 111.926, 510.993 110.309 C 510.989 108.764, 510.077 103.675, 508.966 99 C 507.855 94.325, 505.766 87.350, 504.324 83.500 C 502.882 79.650, 500.370 73.800, 498.741 70.500 C 497.113 67.200, 493.255 60.675, 490.168 56 C 487.082 51.325, 480.043 42.971, 474.528 37.436 C 468.873 31.761, 460.793 24.940, 456 21.795 C 451.325 18.727, 444.350 14.645, 440.500 12.724 C 436.650 10.803, 429.450 7.880, 424.500 6.227 C 419.550 4.575, 411.258 2.498, 406.074 1.611 C 397.692 0.178, 380.968 0.010, 255.074 0.090 C 136.752 0.165, 112.186 0.415, 105.500 1.615 M 358.396 65.358 C 356.139 66.098, 352.245 68.111, 349.743 69.833 C 347.241 71.554, 344.363 74.098, 343.347 75.486 C 341.500 78.009, 341.500 78.009, 317 71.514 C 303.525 67.942, 290.414 65.016, 287.864 65.010 C 284.727 65.003, 281.494 65.901, 277.864 67.787 C 274.298 69.640, 271.490 72.073, 269.485 75.047 C 267.107 78.577, 264.589 86.592, 257.559 113.011 C 252.657 131.430, 246.813 153.250, 244.573 161.500 C 240.499 176.500, 240.499 176.500, 232 177.194 C 227.325 177.576, 220.575 178.410, 217 179.048 C 213.425 179.686, 206 181.322, 200.500 182.683 C 195 184.044, 186.225 186.755, 181 188.706 C 175.775 190.657, 166.580 194.716, 160.567 197.727 C 154.553 200.737, 146.767 205.011, 143.263 207.224 C 136.892 211.247, 136.892 211.247, 134.696 209.237 C 133.488 208.131, 130.475 206.206, 128 204.960 C 125.525 203.714, 121.250 202.094, 118.500 201.359 C 115.750 200.625, 111.025 200.024, 108 200.024 C 104.975 200.024, 100.250 200.626, 97.500 201.361 C 94.750 202.097, 90.079 203.929, 87.119 205.433 C 84.160 206.936, 79.585 210.320, 76.952 212.952 C 74.320 215.585, 70.936 220.160, 69.433 223.119 C 67.929 226.079, 66.097 230.750, 65.361 233.500 C 64.626 236.250, 64.024 240.975, 64.024 244 C 64.024 247.025, 64.626 251.750, 65.361 254.500 C 66.097 257.250, 67.945 261.952, 69.468 264.950 C 70.990 267.947, 74.664 272.733, 77.632 275.584 C 80.600 278.436, 84.259 281.279, 85.764 281.903 C 88.500 283.037, 88.500 283.037, 88.538 296.268 C 88.568 306.741, 89.043 311.238, 90.817 317.837 C 92.050 322.422, 94.396 329.122, 96.030 332.726 C 97.664 336.330, 101.559 343.153, 104.685 347.889 C 107.851 352.686, 114.622 360.708, 119.971 366 C 125.252 371.225, 133.606 378.254, 138.536 381.621 C 143.466 384.987, 151.325 389.782, 156 392.276 C 160.675 394.770, 169.675 398.859, 176 401.362 C 182.325 403.866, 193.107 407.282, 199.959 408.953 C 206.812 410.625, 217.387 412.771, 223.459 413.722 C 231.357 414.960, 240.479 415.450, 255.500 415.444 C 267.422 415.440, 280.391 414.873, 285.500 414.134 C 290.450 413.418, 299.607 411.713, 305.848 410.344 C 312.090 408.975, 322.440 406.057, 328.848 403.859 C 335.257 401.660, 345.008 397.660, 350.518 394.968 C 356.028 392.277, 364.578 387.405, 369.518 384.143 C 374.458 380.881, 382.100 375.071, 386.500 371.232 C 390.900 367.394, 396.975 361.253, 400 357.585 C 403.025 353.917, 407.440 347.750, 409.812 343.880 C 412.183 340.010, 415.440 333.554, 417.050 329.534 C 418.659 325.515, 420.742 319.137, 421.677 315.363 C 422.797 310.845, 423.399 304.221, 423.439 295.973 C 423.500 283.446, 423.500 283.446, 428.900 279.973 C 431.917 278.033, 436.192 273.951, 438.588 270.725 C 440.946 267.548, 443.839 262.374, 445.017 259.226 C 446.194 256.078, 447.407 250.527, 447.712 246.891 C 448.039 242.997, 447.744 238.065, 446.996 234.890 C 446.296 231.925, 444.445 226.943, 442.882 223.817 C 441.318 220.691, 437.752 215.847, 434.957 213.052 C 432.162 210.257, 427.541 206.784, 424.688 205.335 C 421.834 203.885, 417.250 202.097, 414.500 201.361 C 411.750 200.626, 407.025 200.024, 404 200.024 C 400.975 200.024, 396.250 200.625, 393.500 201.359 C 390.750 202.094, 386.475 203.714, 384 204.960 C 381.525 206.206, 378.512 208.131, 377.304 209.237 C 375.108 211.247, 375.108 211.247, 368.743 207.228 C 365.243 205.017, 357.789 200.905, 352.178 198.089 C 346.567 195.274, 338.555 191.611, 334.374 189.950 C 330.193 188.289, 322.155 185.634, 316.512 184.049 C 310.870 182.465, 302.484 180.471, 297.876 179.618 C 293.269 178.766, 284.325 177.561, 278 176.942 C 271.675 176.322, 266.346 175.665, 266.157 175.481 C 265.968 175.298, 270.395 158.127, 275.993 137.324 C 281.592 116.521, 286.850 97.105, 287.678 94.178 C 288.577 91.002, 289.651 89.035, 290.342 89.298 C 290.979 89.541, 300.275 92.074, 311 94.927 C 321.725 97.779, 331.870 100.543, 333.545 101.067 C 336.001 101.835, 336.811 102.845, 337.730 106.281 C 338.357 108.624, 340.444 112.604, 342.369 115.124 C 344.293 117.644, 348.035 121.092, 350.684 122.785 C 353.333 124.478, 357.664 126.404, 360.309 127.065 C 362.956 127.727, 367.782 128.025, 371.045 127.730 C 374.304 127.434, 379.104 126.160, 381.710 124.899 C 384.316 123.637, 388.283 120.769, 390.526 118.526 C 392.769 116.283, 395.706 112.210, 397.052 109.474 C 399.076 105.361, 399.496 103.029, 399.475 96 C 399.455 89.037, 399.007 86.596, 396.999 82.500 C 395.651 79.750, 392.725 75.676, 390.498 73.448 C 388.270 71.219, 384.257 68.335, 381.579 67.038 C 378.234 65.419, 374.485 64.577, 369.605 64.348 C 365.432 64.152, 360.806 64.569, 358.396 65.358 M 0.487 256 C 0.487 334.925, 0.605 367.212, 0.750 327.750 C 0.895 288.287, 0.895 223.712, 0.750 184.250 C 0.605 144.787, 0.487 177.075, 0.487 256 M 184.500 240.868 C 182.850 241.301, 179.700 242.512, 177.500 243.557 C 175.300 244.603, 171.689 247.268, 169.476 249.479 C 167.263 251.691, 164.361 255.750, 163.027 258.500 C 161.042 262.592, 160.602 265.044, 160.602 272 C 160.602 278.729, 161.061 281.444, 162.808 285.031 C 164.021 287.523, 166.327 291.154, 167.932 293.101 C 169.537 295.048, 173.696 298.176, 177.175 300.052 C 182.972 303.178, 184.210 303.461, 192 303.441 C 199.223 303.422, 201.267 303.020, 205.607 300.765 C 208.417 299.305, 212.054 296.984, 213.691 295.607 C 215.327 294.230, 218.196 290.267, 220.065 286.801 C 223.176 281.031, 223.461 279.784, 223.441 272 C 223.422 264.777, 223.020 262.733, 220.765 258.393 C 219.305 255.583, 216.984 251.946, 215.607 250.309 C 214.230 248.673, 210.380 245.882, 207.052 244.109 C 202.412 241.635, 199.429 240.790, 194.251 240.482 C 190.538 240.260, 186.150 240.434, 184.500 240.868 M 312.500 240.868 C 310.850 241.301, 307.700 242.512, 305.500 243.557 C 303.300 244.603, 299.689 247.268, 297.476 249.479 C 295.263 251.691, 292.361 255.750, 291.027 258.500 C 289.042 262.592, 288.602 265.044, 288.602 272 C 288.602 278.956, 289.042 281.408, 291.027 285.500 C 292.361 288.250, 295.275 292.324, 297.502 294.552 C 299.730 296.781, 303.790 299.706, 306.526 301.052 C 310.628 303.071, 312.991 303.498, 320 303.490 C 326.579 303.483, 329.561 302.992, 333.196 301.320 C 335.779 300.132, 339.853 297.200, 342.249 294.804 C 344.645 292.408, 347.706 288.210, 349.052 285.474 C 351.072 281.369, 351.498 279.015, 351.486 272 C 351.474 264.734, 351.083 262.759, 348.791 258.393 C 347.317 255.583, 344.984 251.946, 343.607 250.309 C 342.230 248.673, 338.380 245.882, 335.052 244.109 C 330.412 241.635, 327.429 240.790, 322.251 240.482 C 318.538 240.260, 314.150 240.434, 312.500 240.868 M 186.190 342.026 C 184.354 343.145, 182.202 345.665, 181.359 347.684 C 180.456 349.846, 180.079 352.608, 180.431 354.486 C 180.758 356.226, 182.257 358.804, 183.762 360.215 C 185.268 361.626, 189.650 364.141, 193.500 365.805 C 197.350 367.469, 204.123 369.998, 208.551 371.426 C 212.980 372.853, 219.730 374.680, 223.551 375.485 C 227.373 376.291, 235.225 377.469, 241 378.104 C 247.191 378.784, 256.629 378.998, 264 378.624 C 270.875 378.275, 280.785 377.137, 286.023 376.094 C 291.260 375.051, 299.810 372.782, 305.023 371.051 C 310.235 369.321, 317.425 366.463, 321 364.702 C 325.197 362.635, 328.297 360.296, 329.750 358.102 C 330.988 356.233, 331.998 353.533, 331.996 352.102 C 331.994 350.671, 331.114 348.059, 330.040 346.299 C 328.967 344.538, 326.659 342.358, 324.912 341.455 C 323.076 340.505, 320.420 340.008, 318.618 340.276 C 316.903 340.532, 311.549 342.403, 306.721 344.435 C 301.892 346.467, 293.760 349.191, 288.649 350.487 C 283.538 351.784, 274.665 353.390, 268.932 354.056 C 262.877 354.760, 254.458 355.003, 248.848 354.635 C 243.535 354.287, 235.801 353.354, 231.662 352.562 C 227.523 351.770, 221.220 350.222, 217.655 349.120 C 214.090 348.019, 207.304 345.517, 202.575 343.559 C 197.846 341.602, 192.969 340.002, 191.738 340.004 C 190.507 340.006, 188.010 340.916, 186.190 342.026 M 237.895 422.187 C 237.838 422.909, 237.862 428.132, 237.949 433.794 C 238.036 439.456, 237.828 444.966, 237.488 446.039 C 236.907 447.867, 236.632 447.798, 233.073 444.938 C 229.994 442.464, 228.325 441.880, 224.240 441.849 C 221.470 441.827, 217.574 442.583, 215.582 443.528 C 213.590 444.473, 211.051 446.524, 209.939 448.086 C 208.827 449.648, 206.771 454.655, 205.370 459.213 C 203.716 464.596, 202.767 470.190, 202.662 475.176 C 202.509 482.408, 202.670 483.031, 205.437 485.926 C 207.052 487.617, 209.105 489, 209.999 489 C 210.893 489, 213.396 488.135, 215.562 487.077 C 217.728 486.019, 221.351 483.206, 223.612 480.827 C 225.874 478.447, 229.546 474.149, 231.772 471.275 C 235.819 466.049, 235.819 466.049, 236.462 471.275 C 236.816 474.149, 237.338 477.716, 237.622 479.203 C 237.906 480.690, 239.040 483.052, 240.142 484.453 C 241.244 485.854, 242.755 487, 243.500 487 C 244.245 487, 245.788 485.814, 246.927 484.365 C 248.067 482.916, 249 481.125, 249 480.384 C 249 479.644, 247.920 478.767, 246.601 478.436 C 245.025 478.040, 244.025 476.918, 243.688 475.167 C 243.406 473.700, 243.291 468.225, 243.432 463 C 243.572 457.775, 244.221 449, 244.874 443.500 C 245.586 437.497, 245.748 431.102, 245.280 427.500 C 244.519 421.649, 244.419 421.492, 241.250 421.187 C 239.110 420.980, 237.964 421.322, 237.895 422.187 M 278.082 434.608 C 276.492 435.276, 273.010 438.001, 270.345 440.662 C 267.680 443.323, 264.894 447.075, 264.153 449 C 263.413 450.925, 261.748 455.417, 260.454 458.982 C 258.702 463.811, 258.253 466.617, 258.693 469.982 C 259.018 472.467, 260.336 476.325, 261.623 478.555 C 262.909 480.785, 265.658 483.551, 267.731 484.700 C 269.804 485.849, 274.264 487.101, 277.642 487.480 C 281.899 487.959, 285.581 487.706, 289.642 486.655 C 292.864 485.822, 297.075 484.402, 299 483.501 C 300.925 482.599, 303.663 481.229, 305.085 480.456 C 306.506 479.682, 309.769 477.094, 312.335 474.705 C 315.133 472.099, 317 469.488, 317 468.180 C 317 466.911, 316.375 466, 315.503 466 C 314.679 466, 312.317 467.522, 310.253 469.382 C 308.189 471.243, 304.700 473.777, 302.500 475.013 C 300.300 476.249, 296.025 478.057, 293 479.031 C 289.975 480.005, 285.105 480.839, 282.179 480.884 C 279.252 480.930, 275.331 480.329, 273.465 479.550 C 271.022 478.529, 269.463 476.835, 267.893 473.496 C 265.887 469.229, 265.813 468.405, 266.959 463.179 C 267.644 460.056, 269.566 455.093, 271.231 452.152 C 272.896 449.211, 275.535 445.498, 277.096 443.902 C 279.393 441.552, 280.786 441, 284.419 441 C 286.887 441, 289.986 441.492, 291.305 442.093 C 293.216 442.964, 293.887 444.317, 294.602 448.746 C 295.136 452.053, 296.168 454.723, 297.149 455.334 C 298.360 456.089, 299.488 455.910, 301.399 454.658 C 303.437 453.323, 303.997 452.147, 303.985 449.227 C 303.977 447.177, 303.415 444.411, 302.735 443.079 C 302.056 441.748, 299.262 439.285, 296.527 437.607 C 293.374 435.674, 289.616 434.343, 286.263 433.974 C 283.041 433.619, 279.844 433.867, 278.082 434.608 M 96.442 438.094 C 96.134 438.592, 94.178 439, 92.096 439 C 89.698 439, 87.703 439.671, 86.655 440.829 C 85.745 441.835, 85 443.358, 85 444.214 C 85 445.070, 86.060 446.465, 87.357 447.314 C 89.498 448.717, 89.866 448.705, 91.393 447.179 C 92.867 445.705, 93.187 445.683, 94.014 447 C 94.532 447.825, 94.894 455.250, 94.819 463.500 C 94.744 471.750, 94.782 480.413, 94.904 482.750 C 95.097 486.462, 95.418 487, 97.440 487 C 98.713 487, 100.278 486.370, 100.918 485.599 C 101.610 484.764, 102.029 481.028, 101.954 476.349 C 101.885 472.032, 102.092 463.576, 102.415 457.559 C 102.791 450.537, 103.448 446.304, 104.250 445.743 C 104.938 445.262, 110.900 445.100, 117.500 445.384 C 124.830 445.699, 131.446 446.558, 134.500 447.592 C 137.250 448.522, 140.063 449.725, 140.750 450.264 C 141.438 450.804, 142 451.568, 142 451.962 C 142 452.356, 140.876 453.191, 139.502 453.817 C 138.128 454.443, 133.965 455.669, 130.252 456.541 C 126.538 457.413, 119.511 458.191, 114.635 458.270 C 106.505 458.401, 105.685 458.598, 104.753 460.643 C 104.194 461.869, 104.007 463.576, 104.337 464.436 C 104.667 465.296, 105.673 466, 106.572 466 C 107.471 466, 111.648 468.813, 115.853 472.250 C 120.059 475.688, 125.042 479.585, 126.927 480.911 C 128.812 482.237, 133.537 484.203, 137.427 485.280 C 141.317 486.357, 145.175 487.231, 146 487.221 C 146.825 487.211, 149.932 486.913, 152.905 486.559 C 155.878 486.205, 159.510 485.061, 160.975 484.018 C 163.640 482.120, 163.640 482.120, 165.372 485.053 C 166.325 486.666, 168.094 488.518, 169.302 489.168 C 170.511 489.818, 173.268 490.676, 175.429 491.074 C 178.232 491.590, 180.382 491.324, 182.929 490.148 C 184.893 489.242, 187.095 487.938, 187.821 487.250 C 188.548 486.563, 189.554 486, 190.057 486 C 190.560 486, 192.116 484.271, 193.515 482.157 C 195.019 479.884, 195.798 477.638, 195.422 476.657 C 195.072 475.746, 194.179 475, 193.437 475 C 192.696 475, 189.519 476.800, 186.379 479 C 182.173 481.946, 179.677 483, 176.906 483 C 174.818 483, 172.443 482.300, 171.571 481.429 C 170.629 480.486, 170.014 478.185, 170.035 475.679 C 170.055 473.380, 170.617 470.600, 171.285 469.500 C 171.967 468.378, 173.818 467.365, 175.500 467.193 C 177.150 467.025, 180.750 465.534, 183.500 463.881 C 186.884 461.847, 189.127 459.583, 190.440 456.878 C 191.507 454.679, 192.443 452.029, 192.519 450.987 C 192.596 449.946, 192.076 447.707, 191.363 446.013 C 190.584 444.158, 188.789 442.394, 186.854 441.581 C 184.666 440.661, 182.816 440.517, 181.058 441.130 C 179.637 441.625, 177.212 443.261, 175.669 444.765 C 174.126 446.269, 171.981 448.996, 170.902 450.823 C 169.823 452.651, 168.391 453.962, 167.720 453.737 C 166.870 453.452, 165.994 456.682, 164.832 464.388 C 163.501 473.213, 162.735 475.796, 161.039 477.169 C 159.870 478.116, 156.861 479.198, 154.352 479.574 C 151.843 479.951, 146.575 479.731, 142.645 479.086 C 138.359 478.383, 134.008 476.931, 131.771 475.457 C 129.721 474.106, 127.814 473, 127.535 473 C 127.256 473, 125.458 471.313, 123.541 469.250 C 121.623 467.188, 120.042 465.184, 120.027 464.799 C 120.012 464.413, 121.912 464.162, 124.250 464.241 C 126.588 464.321, 129.400 463.929, 130.500 463.371 C 131.600 462.813, 135.200 461.523, 138.500 460.504 C 142 459.423, 145.646 457.467, 147.250 455.809 C 148.762 454.247, 150 452.367, 150 451.632 C 150 450.897, 148.988 448.831, 147.750 447.042 C 146.210 444.814, 143.765 443.153, 140 441.777 C 136.975 440.671, 131.575 439.407, 128 438.969 C 124.425 438.531, 115.988 437.951, 109.251 437.681 C 102.416 437.406, 96.754 437.589, 96.442 438.094 M 367.194 445.750 C 366.712 446.712, 366.587 450.453, 366.916 454.062 C 367.245 457.671, 367.252 462.233, 366.933 464.200 C 366.613 466.166, 366.385 471.404, 366.426 475.838 C 366.469 480.590, 366.983 484.384, 367.677 485.077 C 368.332 485.732, 369.934 485.982, 371.289 485.642 C 372.847 485.251, 374.946 483.014, 377.113 479.435 C 378.976 476.357, 380.979 473.312, 381.564 472.669 C 382.150 472.026, 384.338 468.800, 386.426 465.500 C 388.515 462.200, 391.356 457.992, 392.740 456.149 C 394.658 453.594, 395.460 453.119, 396.113 454.149 C 396.584 454.892, 396.976 460.138, 396.985 465.807 C 396.993 471.476, 397.507 478.128, 398.127 480.590 C 398.747 483.052, 399.984 485.448, 400.877 485.915 C 401.770 486.382, 403.482 486.393, 404.681 485.940 C 405.881 485.486, 408.753 482.727, 411.063 479.808 C 413.373 476.888, 415.749 473.375, 416.342 472 C 416.935 470.625, 418.676 468.022, 420.210 466.215 C 423 462.930, 423 462.930, 423 466.928 C 423 469.126, 423.931 473.413, 425.069 476.454 C 426.206 479.495, 428.106 482.662, 429.291 483.491 C 430.476 484.321, 432.979 485, 434.854 485 C 436.730 485, 439.757 484.077, 441.582 482.950 C 443.406 481.822, 445.881 479.310, 447.082 477.368 C 449.099 474.104, 449.141 473.712, 447.635 472.207 C 446.130 470.701, 445.673 470.904, 441.618 474.884 C 438.897 477.555, 436.521 479.060, 435.365 478.845 C 434.339 478.655, 432.641 476.741, 431.592 474.591 C 430.139 471.616, 429.712 468.701, 429.805 462.387 C 429.872 457.785, 430.472 453.217, 431.153 452.127 C 432.131 450.560, 432.114 449.842, 431.067 448.581 C 430.346 447.712, 428.491 447, 426.945 447 C 424.927 447, 423.938 447.621, 423.436 449.202 C 423.052 450.412, 419.759 455.571, 416.119 460.666 C 412.478 465.760, 408.733 471.294, 407.797 472.964 C 406.860 474.634, 405.622 476, 405.047 476 C 404.389 476, 404 472.342, 404 466.149 C 404 460.731, 403.488 454.769, 402.861 452.899 C 402.235 451.030, 400.807 448.488, 399.687 447.250 C 398.567 446.012, 396.855 445, 395.881 445 C 394.907 445, 390.935 448.603, 387.055 453.006 C 383.175 457.410, 380 461.441, 380 461.966 C 380 462.490, 378.766 464.962, 377.257 467.459 C 375.749 469.957, 374.262 472, 373.953 472 C 373.644 472, 373.581 466.669, 373.813 460.154 C 374.092 452.346, 373.843 447.574, 373.083 446.154 C 372.448 444.969, 371.061 444, 370 444 C 368.939 444, 367.676 444.788, 367.194 445.750 M 333.376 446.462 C 333.068 447.266, 331.957 448.196, 330.908 448.529 C 329.858 448.862, 329 449.597, 329 450.163 C 329 450.729, 328.055 452.519, 326.899 454.142 C 325.744 455.764, 324.195 459.434, 323.459 462.296 C 322.722 465.158, 321.576 469.312, 320.913 471.527 C 320.178 473.977, 319.981 477.385, 320.408 480.234 C 320.794 482.808, 321.877 485.862, 322.815 487.020 C 323.835 488.280, 326.157 489.345, 328.592 489.672 C 331.732 490.093, 333.983 489.594, 338.435 487.487 C 341.610 485.985, 345.807 483.352, 347.762 481.636 C 349.717 479.919, 352.366 476.261, 353.649 473.507 C 355.061 470.475, 355.984 466.611, 355.990 463.710 C 355.996 460.951, 355.193 457.348, 354.097 455.210 C 353.051 453.170, 351.138 450.517, 349.847 449.317 C 348.556 448.116, 346.233 446.653, 344.685 446.067 C 343.137 445.480, 340.085 445, 337.904 445 C 335.346 445, 333.738 445.519, 333.376 446.462 M 181.305 449.499 C 180.127 450.324, 178.176 452.598, 176.968 454.552 C 175.760 456.506, 175.006 458.339, 175.291 458.625 C 175.577 458.911, 177.634 457.993, 179.863 456.587 C 182.091 455.180, 184.404 453.113, 185.003 451.994 C 185.602 450.875, 185.820 449.518, 185.487 448.979 C 185.154 448.441, 184.559 448, 184.163 448 C 183.768 448, 182.482 448.675, 181.305 449.499 M 216.666 451.827 C 215.127 453.433, 213.036 457.642, 211.823 461.577 C 210.649 465.384, 209.494 471.087, 209.256 474.250 C 208.959 478.180, 209.188 480, 209.977 480 C 210.612 480, 212.114 479.480, 213.316 478.845 C 214.517 478.210, 217.509 475.931, 219.965 473.780 C 222.421 471.629, 225.346 468.375, 226.465 466.549 C 227.584 464.723, 229.832 461.325, 231.461 458.997 C 234.421 454.765, 234.421 454.765, 231.195 451.883 C 228.700 449.654, 226.994 449, 223.671 449 C 220.261 449, 218.816 449.583, 216.666 451.827 M 336.197 454.904 C 334.471 457.052, 331.876 461.439, 330.431 464.654 C 328.940 467.971, 327.570 473.204, 327.264 476.750 C 326.843 481.643, 327.027 483.023, 328.113 483.106 C 328.876 483.164, 330.850 483.124, 332.500 483.016 C 334.150 482.909, 337.012 481.894, 338.860 480.761 C 340.707 479.628, 343.189 477.756, 344.373 476.601 C 345.558 475.445, 347.194 473.199, 348.009 471.608 C 348.824 470.017, 349.414 466.760, 349.322 464.370 C 349.220 461.745, 348.270 458.733, 346.922 456.762 C 345.694 454.968, 343.999 452.938, 343.154 452.250 C 342.309 451.563, 341.104 451, 340.476 451 C 339.848 451, 337.923 452.757, 336.197 454.904" stroke="none" fill="#fc4804" fill-rule="evenodd"/></svg>