<svg version="1.1" id="Layer_1" xmlns="http://www.w3.org/2000/svg" xmlns:xlink="http://www.w3.org/1999/xlink" x="0px" y="0px"
	 width="100%" viewBox="0 0 512 512" enable-background="new 0 0 512 512" xml:space="preserve">
<path fill="#FF7300" opacity="1.000000" stroke="none" 
	d="
M1.000000,369.000000 
	C1.000000,281.645782 1.000000,194.291550 1.331466,106.790260 
	C2.080366,106.145882 2.776509,105.698227 2.875232,105.144119 
	C7.664855,78.261032 20.189756,55.686337 39.745506,36.625328 
	C57.923084,18.907625 79.368248,7.959354 104.071205,2.934179 
	C104.814529,2.782969 105.361488,1.666461 106.000000,1.000002 
	C201.687561,1.000000 297.375122,1.000000 393.840393,1.233400 
	C396.575348,1.779226 398.564972,1.958122 400.485046,2.423839 
	C437.176514,11.323569 461.549042,45.999012 456.215820,83.129509 
	C451.265076,117.597008 420.961700,144.947403 386.225464,144.992783 
	C363.091736,145.022995 339.957947,145.025833 316.824249,144.989304 
	C303.013519,144.967484 289.202972,144.845917 275.436737,144.364319 
	C280.283295,126.034004 285.085480,108.108551 289.946472,89.963448 
	C304.609192,93.873199 318.686707,97.718430 332.824585,101.327415 
	C336.048523,102.150406 337.691803,103.570496 338.751953,106.899338 
	C343.275513,121.102928 356.603882,129.933380 371.285889,128.927216 
	C385.612396,127.945389 397.406830,117.394783 400.322052,102.953194 
	C403.155853,88.914909 395.874603,74.478172 382.785065,68.182159 
	C369.710175,61.893188 354.230469,65.055038 344.758850,76.329704 
	C342.755768,78.714111 341.162659,78.859222 338.470825,78.120941 
	C324.211823,74.210098 309.937836,70.339821 295.592529,66.762169 
	C282.936066,63.605709 270.911530,70.604576 266.986298,83.050751 
	C266.237366,85.425522 265.651886,87.851906 264.993378,90.255127 
	C259.992401,108.506561 254.991974,126.758156 249.523315,145.006653 
	C236.617050,145.644501 224.139557,145.861740 211.748795,147.012878 
	C184.413025,149.552444 158.625977,157.916138 134.189835,170.063477 
	C102.949844,185.593033 76.147751,206.925644 54.252815,234.237228 
	C27.657597,267.411926 10.801602,304.933472 4.027845,346.930115 
	C2.845766,354.258850 2.000712,361.641998 1.000000,369.000000 
z"/>
<path fill="#FF4701" opacity="1.000000" stroke="none" 
	d="
M1.000000,369.468658 
	C2.000712,361.641998 2.845766,354.258850 4.027845,346.930115 
	C10.801602,304.933472 27.657597,267.411926 54.252815,234.237228 
	C76.147751,206.925644 102.949844,185.593033 134.189835,170.063477 
	C158.625977,157.916138 184.413025,149.552444 211.748795,147.012878 
	C224.139557,145.861740 236.617050,145.644501 249.546326,145.403503 
	C247.629181,154.963837 245.100845,164.095291 242.877029,173.300293 
	C242.086594,176.572220 240.513321,177.480545 237.187790,178.009979 
	C222.606461,180.331421 207.903641,182.373413 193.628845,186.019882 
	C173.695435,191.111862 155.517700,200.550446 138.358200,212.035065 
	C136.891968,210.950424 135.581635,209.937332 134.227768,208.986191 
	C115.724281,195.986649 90.095551,199.238754 75.571281,216.420883 
	C57.923717,237.297852 62.973701,268.344055 86.241096,282.752960 
	C87.738182,283.680084 89.621765,285.866760 89.478470,287.280243 
	C86.746002,314.233765 95.412659,337.491486 112.384079,357.915741 
	C132.137192,381.687622 157.954651,396.307068 186.864807,405.983398 
	C210.930420,414.038269 235.764282,417.114594 261.112000,417.505493 
	C264.179199,425.777466 267.181427,433.689117 270.079163,441.914062 
	C266.717224,449.142273 262.903259,455.857269 260.330231,463.018127 
	C256.280518,474.288757 264.888702,487.693695 277.602539,488.627350 
	C287.200470,489.332153 295.500336,486.778290 304.015198,483.307404 
	C305.371735,484.762848 306.425262,486.093079 307.741882,487.067993 
	C322.730865,498.166565 339.225677,506.049744 357.509094,509.976410 
	C362.970581,511.149384 368.501099,512.001099 374.000000,513.000000 
	C284.979095,513.000000 195.958206,513.000000 106.724648,512.637817 
	C105.843506,511.860199 105.225235,511.294617 104.499039,511.051758 
	C93.463936,507.362061 82.027733,504.581696 71.455139,499.863678 
	C53.447216,491.827667 39.059361,478.747833 26.967361,463.340424 
	C14.637776,447.630341 6.769056,429.751007 2.927974,410.114349 
	C2.771519,409.314484 1.664264,408.700562 0.999996,408.000000 
	C1.000000,395.312439 1.000000,382.624878 1.000000,369.468658 
M103.756531,466.006805 
	C104.159790,466.005432 104.563049,466.004028 105.597458,466.372833 
	C107.537262,467.135468 109.765182,467.520569 111.358849,468.736755 
	C115.053009,471.555908 118.467964,474.746063 121.946655,477.841400 
	C128.880585,484.011230 137.446045,487.268951 146.209595,488.209290 
	C152.240143,488.856354 158.640854,486.053345 165.342041,484.698120 
	C167.117386,487.735535 169.937714,491.153229 175.205017,491.878693 
	C183.114853,492.968140 192.578979,488.356018 195.986450,481.055817 
	C196.540619,479.868561 196.309662,477.581116 195.484222,476.720612 
	C194.847977,476.057312 192.433685,476.374268 191.294617,477.060181 
	C188.347321,478.834900 185.927307,481.848694 182.806946,482.867523 
	C179.842834,483.835327 175.395706,484.067535 173.209137,482.449524 
	C171.338440,481.065247 171.315353,476.607605 171.270111,473.497742 
	C171.226334,470.489655 173.050278,468.843872 176.459671,468.211578 
	C183.796677,466.850861 189.614670,463.038147 192.684952,455.805267 
	C194.558624,451.391388 193.484940,446.648376 189.826157,443.690582 
	C185.939804,440.548828 182.178482,440.683624 178.715775,444.237366 
	C176.339172,446.676392 174.258789,449.402252 171.915543,451.876343 
	C170.500061,453.370880 168.835052,454.629059 167.253845,456.018311 
	C166.538681,460.424011 165.904755,465.136322 164.989288,469.793274 
	C163.314240,478.314087 160.724640,480.648926 152.179169,480.929840 
	C139.348160,481.351654 129.041763,476.307831 121.498077,466.593384 
	C128.667328,464.533813 136.019363,462.963104 142.894394,460.203857 
	C146.033798,458.943909 149.652847,455.687775 150.387543,452.684631 
	C150.929474,450.469452 147.753647,446.188721 145.154190,444.632782 
	C141.281967,442.314972 136.545349,440.904785 132.020370,440.323120 
	C121.889473,439.020752 111.664612,438.436829 101.470818,437.654175 
	C100.369461,437.569641 99.202255,438.039276 98.098122,438.362823 
	C96.243355,438.906372 94.337021,439.370972 92.594467,440.176208 
	C90.341583,441.217316 87.242958,442.100098 86.388435,443.929291 
	C85.781502,445.228516 88.282623,447.979706 89.386284,450.063446 
	C91.731956,448.842743 93.075508,448.143555 95.649628,446.803986 
	C95.649628,461.312622 95.649628,474.685638 95.649628,487.987091 
	C101.213005,488.995178 103.045448,486.744629 103.067673,482.426239 
	C103.095833,476.954224 103.123672,471.482178 103.756531,466.006805 
M246.865189,438.318542 
	C246.587509,434.016663 246.655853,429.647339 245.837372,425.450928 
	C245.564804,424.053528 243.019272,423.099457 241.512817,421.942719 
	C240.623184,423.273773 239.160156,424.526245 238.964645,425.952454 
	C238.571884,428.817657 238.947693,431.779785 238.866089,434.697968 
	C238.743790,439.071075 238.500717,443.440796 238.265778,448.797760 
	C236.362183,447.281006 235.385651,446.471893 234.377319,445.704559 
	C227.809875,440.706665 215.151855,441.911102 211.182495,448.681763 
	C205.655151,458.109985 202.800308,468.651886 203.162048,479.599426 
	C203.456177,488.500610 210.261490,491.841125 217.966675,487.386536 
	C220.488281,485.928772 222.792587,483.895630 224.767883,481.734131 
	C228.823669,477.296051 232.590088,472.593506 237.065674,467.302277 
	C237.283401,470.417206 237.131836,472.612518 237.645309,474.639374 
	C238.567078,478.277802 239.338409,482.134033 241.182739,485.313263 
	C243.458344,489.235840 246.663147,488.784180 248.684128,484.744934 
	C249.322601,483.468903 249.554977,481.989655 250.166885,479.961456 
	C244.907440,479.676788 244.285721,476.487396 244.588150,472.395203 
	C245.404816,461.345276 246.015457,450.280121 246.865189,438.318542 
z"/>
<path fill="#FA0101" opacity="1.000000" stroke="none" 
	d="
M270.183655,441.600769 
	C267.181427,433.689117 264.179199,425.777466 261.559875,417.422058 
	C276.291138,415.316803 290.838318,414.641663 304.948242,411.797302 
	C338.815979,404.970032 369.447357,391.020538 394.111633,366.152832 
	C415.731262,344.354828 427.663605,318.553955 424.429535,287.041138 
	C424.309509,285.871796 425.592560,284.255920 426.643280,283.322754 
	C430.595459,279.812683 435.198212,276.925659 438.689850,273.028168 
	C447.282196,263.437195 449.624756,251.682053 449.343506,239.080048 
	C450.599335,238.593781 451.565582,238.274551 452.394135,237.741348 
	C481.170624,219.222107 500.433167,193.699371 508.892334,160.385056 
	C510.675629,153.361847 511.651855,146.133713 513.000000,139.000000 
	C513.000000,228.354233 513.000000,317.708466 512.623840,407.316833 
	C511.857452,408.075531 511.206238,408.536926 511.114655,409.090881 
	C507.488098,431.029907 498.240204,450.558502 483.955872,467.294983 
	C464.359131,490.255829 439.892273,505.670044 409.719818,511.088257 
	C409.053589,511.207916 408.569244,512.340149 408.000000,513.000000 
	C396.979095,513.000000 385.958221,513.000000 374.468658,513.000000 
	C368.501099,512.001099 362.970581,511.149384 357.509094,509.976410 
	C339.225677,506.049744 322.730865,498.166565 307.741882,487.067993 
	C306.425262,486.093079 305.371735,484.762848 304.240051,483.014526 
	C307.881744,479.859314 311.818878,477.633636 314.939270,474.574738 
	C316.596191,472.950470 316.836609,469.881104 317.716461,467.464081 
	C315.476654,468.313873 313.086273,468.898438 311.027435,470.067078 
	C306.335571,472.730225 301.806305,475.679810 297.044250,478.186646 
	C289.466797,468.422455 282.056030,458.984589 274.771667,449.235352 
	C276.327240,447.321075 277.655670,445.612427 279.205566,444.136322 
	C282.878662,440.638397 287.126434,442.126129 291.259583,442.975830 
	C295.064423,443.758118 295.476624,446.547211 295.317474,449.771393 
	C295.261505,450.905182 295.331085,452.292419 295.930634,453.156403 
	C296.968567,454.652130 298.546143,456.960907 299.749420,456.874237 
	C301.525330,456.746338 303.874817,455.193787 304.733124,453.583374 
	C306.794525,449.715637 304.560120,442.659637 300.827179,440.179443 
	C289.235718,432.478149 281.113129,431.604584 270.183655,441.600769 
M418.360626,471.837738 
	C419.572083,470.126526 420.783569,468.415344 422.612152,465.832428 
	C424.005524,470.659302 425.169952,474.063782 425.961548,477.552856 
	C428.390869,488.260376 439.136658,489.336243 445.647430,481.608704 
	C447.706299,479.165039 452.198151,476.261810 448.724152,473.019012 
	C445.452240,469.964874 443.538361,474.812073 441.535156,476.850128 
	C437.313416,481.145203 434.031128,480.620728 432.076508,474.750946 
	C429.708588,467.640106 430.434265,460.458496 432.110870,453.241028 
	C432.475098,451.673279 431.567688,448.710114 430.414368,448.172089 
	C429.014587,447.519012 425.814514,448.105377 424.981903,449.280792 
	C419.538116,456.966034 414.543335,464.968445 409.351898,472.834198 
	C408.427979,474.233978 407.270782,475.479767 406.221313,476.796692 
	C405.093536,471.938416 405.339386,467.503754 405.020081,463.110107 
	C404.736084,459.202179 404.435333,455.106842 403.060028,451.507660 
	C400.510559,444.835663 396.016449,444.065430 391.539978,449.591095 
	C386.874023,455.350739 382.910767,461.680267 378.653229,467.769684 
	C377.594910,469.283356 376.586517,470.831940 375.111084,473.024353 
	C375.111084,464.704071 375.422699,457.453278 374.899414,450.263275 
	C374.762817,448.386353 372.049591,445.271820 370.480072,445.247131 
	C367.909882,445.206665 367.074799,447.730835 367.381958,450.819427 
	C367.918518,456.214905 367.591156,461.698486 367.585541,467.145081 
	C367.580231,472.273285 367.241943,477.423492 367.641663,482.517609 
	C367.780670,484.289185 369.688873,485.921875 370.789062,487.617981 
	C372.511505,486.455658 374.751465,485.656219 375.865448,484.067322 
	C380.336395,477.690430 384.395355,471.026672 388.735565,464.555420 
	C390.992035,461.190918 393.517273,458.006714 395.921112,454.741058 
	C396.376007,454.868286 396.830902,454.995544 397.285828,455.122803 
	C397.540131,457.830536 397.851959,460.534363 398.037323,463.246826 
	C398.488647,469.850464 398.453796,476.522247 399.432037,483.044006 
	C400.223297,488.319244 404.267517,489.406921 407.948456,485.435516 
	C411.652985,481.438690 414.717804,476.848969 418.360626,471.837738 
M345.071777,446.640167 
	C341.758606,446.546814 337.374298,445.069336 335.347260,446.637970 
	C330.606995,450.306213 326.130066,454.817474 324.883118,461.320679 
	C324.389587,463.894653 323.305206,466.379181 323.015808,468.963348 
	C322.459503,473.930756 321.595276,479.010742 322.102081,483.915588 
	C322.858307,491.234344 328.297974,492.297272 333.686127,490.960846 
	C341.234344,489.088745 348.110626,485.272400 352.770050,478.483276 
	C360.775177,466.819061 357.776886,452.039764 345.071777,446.640167 
z"/>
<path fill="#FF4600" opacity="1.000000" stroke="none" 
	d="
M513.000000,138.531342 
	C511.651855,146.133713 510.675629,153.361847 508.892334,160.385056 
	C500.433167,193.699371 481.170624,219.222107 452.394135,237.741348 
	C451.565582,238.274551 450.599335,238.593781 449.134277,238.746017 
	C445.343323,221.622314 436.046997,209.588669 419.806702,203.686935 
	C403.573242,197.787674 388.776611,201.510040 375.551788,212.017471 
	C342.522308,189.885559 306.313934,178.572891 266.529022,177.068634 
	C269.594543,165.897308 272.493439,155.333237 275.392334,144.769165 
	C289.202972,144.845917 303.013519,144.967484 316.824249,144.989304 
	C339.957947,145.025833 363.091736,145.022995 386.225464,144.992783 
	C420.961700,144.947403 451.265076,117.597008 456.215820,83.129509 
	C461.549042,45.999012 437.176514,11.323569 400.485046,2.423839 
	C398.564972,1.958122 396.575348,1.779226 394.309052,1.233400 
	C398.356903,1.000000 402.713806,1.000000 407.272766,1.359779 
	C408.143066,2.136126 408.760620,2.706361 409.487244,2.946202 
	C420.398834,6.547766 431.717133,9.223802 442.160767,13.868852 
	C460.476288,22.015049 475.103760,35.321049 487.326538,51.001057 
	C499.597198,66.742432 507.561890,84.621696 511.088013,104.381447 
	C511.200989,105.014534 512.339539,105.464600 513.000000,105.999992 
	C513.000000,116.687561 513.000000,127.375122 513.000000,138.531342 
z"/>
<path fill="#000000" opacity="1.000000" stroke="none" 
	d="
M0.999996,408.468658 
	C1.664264,408.700562 2.771519,409.314484 2.927974,410.114349 
	C6.769056,429.751007 14.637776,447.630341 26.967361,463.340424 
	C39.059361,478.747833 53.447216,491.827667 71.455139,499.863678 
	C82.027733,504.581696 93.463936,507.362061 104.499039,511.051758 
	C105.225235,511.294617 105.843506,511.860199 106.255989,512.637817 
	C71.073059,513.000000 36.146114,513.000000 1.000000,513.000000 
	C1.000000,478.312744 1.000000,443.625031 0.999996,408.468658 
z"/>
<path fill="#000000" opacity="1.000000" stroke="none" 
	d="
M105.531342,1.000002 
	C105.361488,1.666461 104.814529,2.782969 104.071205,2.934179 
	C79.368248,7.959354 57.923084,18.907625 39.745506,36.625328 
	C20.189756,55.686337 7.664855,78.261032 2.875232,105.144119 
	C2.776509,105.698227 2.080366,106.145882 1.331466,106.321602 
	C1.000000,71.073059 1.000000,36.146111 1.000000,1.000000 
	C35.687252,1.000000 70.374969,1.000000 105.531342,1.000002 
z"/>
<path fill="#000000" opacity="1.000000" stroke="none" 
	d="
M513.000000,105.531334 
	C512.339539,105.464600 511.200989,105.014534 511.088013,104.381447 
	C507.561890,84.621696 499.597198,66.742432 487.326538,51.001057 
	C475.103760,35.321049 460.476288,22.015049 442.160767,13.868852 
	C431.717133,9.223802 420.398834,6.547766 409.487244,2.946202 
	C408.760620,2.706361 408.143066,2.136126 407.737396,1.359779 
	C442.926941,1.000000 477.853882,1.000000 513.000000,1.000000 
	C513.000000,35.687252 513.000000,70.374969 513.000000,105.531334 
z"/>
<path fill="#000000" opacity="1.000000" stroke="none" 
	d="
M408.468689,513.000000 
	C408.569244,512.340149 409.053589,511.207916 409.719818,511.088257 
	C439.892273,505.670044 464.359131,490.255829 483.955872,467.294983 
	C498.240204,450.558502 507.488098,431.029907 511.114655,409.090881 
	C511.206238,408.536926 511.857452,408.075531 512.623840,407.785461 
	C513.000000,442.926941 513.000000,477.853882 513.000000,513.000000 
	C478.312744,513.000000 443.625031,513.000000 408.468689,513.000000 
z"/>
<path fill="#FFFEFE" opacity="1.000000" stroke="none" 
	d="
M275.436737,144.364319 
	C272.493439,155.333237 269.594543,165.897308 266.529022,177.068634 
	C306.313934,178.572891 342.522308,189.885559 375.551788,212.017471 
	C388.776611,201.510040 403.573242,197.787674 419.806702,203.686935 
	C436.046997,209.588669 445.343323,221.622314 448.780518,238.813293 
	C449.624756,251.682053 447.282196,263.437195 438.689850,273.028168 
	C435.198212,276.925659 430.595459,279.812683 426.643280,283.322754 
	C425.592560,284.255920 424.309509,285.871796 424.429535,287.041138 
	C427.663605,318.553955 415.731262,344.354828 394.111633,366.152832 
	C369.447357,391.020538 338.815979,404.970032 304.948242,411.797302 
	C290.838318,414.641663 276.291138,415.316803 261.494904,417.061737 
	C235.764282,417.114594 210.930420,414.038269 186.864807,405.983398 
	C157.954651,396.307068 132.137192,381.687622 112.384079,357.915741 
	C95.412659,337.491486 86.746002,314.233765 89.478470,287.280243 
	C89.621765,285.866760 87.738182,283.680084 86.241096,282.752960 
	C62.973701,268.344055 57.923717,237.297852 75.571281,216.420883 
	C90.095551,199.238754 115.724281,195.986649 134.227768,208.986191 
	C135.581635,209.937332 136.891968,210.950424 138.358200,212.035065 
	C155.517700,200.550446 173.695435,191.111862 193.628845,186.019882 
	C207.903641,182.373413 222.606461,180.331421 237.187790,178.009979 
	C240.513321,177.480545 242.086594,176.572220 242.877029,173.300293 
	C245.100845,164.095291 247.629181,154.963837 250.014420,145.406555 
	C254.991974,126.758156 259.992401,108.506561 264.993378,90.255127 
	C265.651886,87.851906 266.237366,85.425522 266.986298,83.050751 
	C270.911530,70.604576 282.936066,63.605709 295.592529,66.762169 
	C309.937836,70.339821 324.211823,74.210098 338.470825,78.120941 
	C341.162659,78.859222 342.755768,78.714111 344.758850,76.329704 
	C354.230469,65.055038 369.710175,61.893188 382.785065,68.182159 
	C395.874603,74.478172 403.155853,88.914909 400.322052,102.953194 
	C397.406830,117.394783 385.612396,127.945389 371.285889,128.927216 
	C356.603882,129.933380 343.275513,121.102928 338.751953,106.899338 
	C337.691803,103.570496 336.048523,102.150406 332.824585,101.327415 
	C318.686707,97.718430 304.609192,93.873199 289.946472,89.963448 
	C285.085480,108.108551 280.283295,126.034004 275.436737,144.364319 
M296.046173,292.839264 
	C306.665985,305.567719 323.558838,308.698639 337.340179,300.492737 
	C350.659668,292.561798 356.349548,276.295258 350.790558,261.268951 
	C348.999634,258.298828 347.545746,255.050339 345.361206,252.405304 
	C334.131592,238.808655 313.874390,237.169174 300.360168,248.579269 
	C287.200012,259.690430 285.136261,279.787506 296.046173,292.839264 
M257.939484,379.950165 
	C281.424744,379.742340 303.781097,374.621460 324.920837,364.380157 
	C331.903381,360.997406 334.631470,354.366516 331.822693,348.373993 
	C328.858978,342.050873 321.784393,339.426422 314.931915,342.654144 
	C297.524231,350.853668 279.183899,355.037170 259.135742,355.951050 
	C238.004547,356.121338 217.962952,351.503632 198.841888,342.534027 
	C192.061981,339.353607 185.335770,341.806793 182.404678,348.012817 
	C179.412262,354.348724 181.728287,360.829651 188.674774,364.170227 
	C210.257950,374.549774 232.991714,380.078857 257.939484,379.950165 
M218.183029,292.631104 
	C227.065002,280.230652 227.284363,265.675751 218.764145,254.071396 
	C210.583374,242.929367 196.304047,238.314438 183.195251,242.575867 
	C170.394836,246.737061 161.473145,258.452454 161.032211,271.678955 
	C160.577576,285.316742 168.654770,297.778992 181.168243,302.746674 
	C194.087265,307.875427 207.775299,304.312836 218.183029,292.631104 
z"/>
<path fill="#FFF4F0" opacity="1.000000" stroke="none" 
	d="
M103.151649,466.010162 
	C103.123672,471.482178 103.095833,476.954224 103.067673,482.426239 
	C103.045448,486.744629 101.213005,488.995178 95.649628,487.987091 
	C95.649628,474.685638 95.649628,461.312622 95.649628,446.803986 
	C93.075508,448.143555 91.731956,448.842743 89.386284,450.063446 
	C88.282623,447.979706 85.781502,445.228516 86.388435,443.929291 
	C87.242958,442.100098 90.341583,441.217316 92.594467,440.176208 
	C94.337021,439.370972 96.243355,438.906372 98.098122,438.362823 
	C99.202255,438.039276 100.369461,437.569641 101.470818,437.654175 
	C111.664612,438.436829 121.889473,439.020752 132.020370,440.323120 
	C136.545349,440.904785 141.281967,442.314972 145.154190,444.632782 
	C147.753647,446.188721 150.929474,450.469452 150.387543,452.684631 
	C149.652847,455.687775 146.033798,458.943909 142.894394,460.203857 
	C136.019363,462.963104 128.667328,464.533813 121.498077,466.593384 
	C129.041763,476.307831 139.348160,481.351654 152.179169,480.929840 
	C160.724640,480.648926 163.314240,478.314087 164.989288,469.793274 
	C165.904755,465.136322 166.538681,460.424011 167.253845,456.018311 
	C168.835052,454.629059 170.500061,453.370880 171.915543,451.876343 
	C174.258789,449.402252 176.339172,446.676392 178.715775,444.237366 
	C182.178482,440.683624 185.939804,440.548828 189.826157,443.690582 
	C193.484940,446.648376 194.558624,451.391388 192.684952,455.805267 
	C189.614670,463.038147 183.796677,466.850861 176.459671,468.211578 
	C173.050278,468.843872 171.226334,470.489655 171.270111,473.497742 
	C171.315353,476.607605 171.338440,481.065247 173.209137,482.449524 
	C175.395706,484.067535 179.842834,483.835327 182.806946,482.867523 
	C185.927307,481.848694 188.347321,478.834900 191.294617,477.060181 
	C192.433685,476.374268 194.847977,476.057312 195.484222,476.720612 
	C196.309662,477.581116 196.540619,479.868561 195.986450,481.055817 
	C192.578979,488.356018 183.114853,492.968140 175.205017,491.878693 
	C169.937714,491.153229 167.117386,487.735535 165.342041,484.698120 
	C158.640854,486.053345 152.240143,488.856354 146.209595,488.209290 
	C137.446045,487.268951 128.880585,484.011230 121.946655,477.841400 
	C118.467964,474.746063 115.053009,471.555908 111.358849,468.736755 
	C109.765182,467.520569 107.537262,467.135468 105.259003,465.780548 
	C105.059090,461.850677 105.706291,458.821930 109.939201,458.805450 
	C114.349792,458.788269 118.851990,459.571075 123.151215,458.923096 
	C129.857605,457.912415 136.426575,455.989838 143.053772,454.453644 
	C143.073120,453.834747 143.092468,453.215851 143.111816,452.596954 
	C141.388092,451.492676 139.795471,450.029144 137.918716,449.344299 
	C128.065857,445.748779 117.790276,445.904694 107.511894,446.287720 
	C104.886932,446.385529 103.791000,447.655853 103.772888,450.389221 
	C103.738373,455.597321 103.377190,460.803314 103.151649,466.010162 
M179.922379,458.237152 
	C183.615356,456.572784 186.345352,454.167267 186.908844,449.728424 
	C181.671692,449.938751 177.689926,453.894714 176.561798,459.839447 
	C177.586594,459.362427 178.438416,458.965942 179.922379,458.237152 
z"/>
<path fill="#FFF7F4" opacity="1.000000" stroke="none" 
	d="
M246.786530,438.769775 
	C246.015457,450.280121 245.404816,461.345276 244.588150,472.395203 
	C244.285721,476.487396 244.907440,479.676788 250.166885,479.961456 
	C249.554977,481.989655 249.322601,483.468903 248.684128,484.744934 
	C246.663147,488.784180 243.458344,489.235840 241.182739,485.313263 
	C239.338409,482.134033 238.567078,478.277802 237.645309,474.639374 
	C237.131836,472.612518 237.283401,470.417206 237.065674,467.302277 
	C232.590088,472.593506 228.823669,477.296051 224.767883,481.734131 
	C222.792587,483.895630 220.488281,485.928772 217.966675,487.386536 
	C210.261490,491.841125 203.456177,488.500610 203.162048,479.599426 
	C202.800308,468.651886 205.655151,458.109985 211.182495,448.681763 
	C215.151855,441.911102 227.809875,440.706665 234.377319,445.704559 
	C235.385651,446.471893 236.362183,447.281006 238.265778,448.797760 
	C238.500717,443.440796 238.743790,439.071075 238.866089,434.697968 
	C238.947693,431.779785 238.571884,428.817657 238.964645,425.952454 
	C239.160156,424.526245 240.623184,423.273773 241.512817,421.942719 
	C243.019272,423.099457 245.564804,424.053528 245.837372,425.450928 
	C246.655853,429.647339 246.587509,434.016663 246.786530,438.769775 
M227.610504,467.078156 
	C229.067825,464.919403 230.549103,462.776337 231.977661,460.598724 
	C235.416702,455.356445 233.059982,450.530762 226.567703,449.987457 
	C222.297867,449.630157 218.163376,450.502289 215.987991,454.768372 
	C214.584381,457.520905 213.440186,460.485016 212.707703,463.483307 
	C211.340530,469.079681 210.357864,474.769958 209.215195,480.421173 
	C209.861115,480.718353 210.507019,481.015533 211.152939,481.312714 
	C217.849243,478.484650 223.075439,473.788269 227.610504,467.078156 
z"/>
<path fill="#FFF2F0" opacity="1.000000" stroke="none" 
	d="
M297.210938,478.512970 
	C301.806305,475.679810 306.335571,472.730225 311.027435,470.067078 
	C313.086273,468.898438 315.476654,468.313873 317.716461,467.464081 
	C316.836609,469.881104 316.596191,472.950470 314.939270,474.574738 
	C311.818878,477.633636 307.881744,479.859314 304.059296,482.724274 
	C295.500336,486.778290 287.200470,489.332153 277.602539,488.627350 
	C264.888702,487.693695 256.280518,474.288757 260.330231,463.018127 
	C262.903259,455.857269 266.717224,449.142273 270.079163,441.914062 
	C281.113129,431.604584 289.235718,432.478149 300.827179,440.179443 
	C304.560120,442.659637 306.794525,449.715637 304.733124,453.583374 
	C303.874817,455.193787 301.525330,456.746338 299.749420,456.874237 
	C298.546143,456.960907 296.968567,454.652130 295.930634,453.156403 
	C295.331085,452.292419 295.261505,450.905182 295.317474,449.771393 
	C295.476624,446.547211 295.064423,443.758118 291.259583,442.975830 
	C287.126434,442.126129 282.878662,440.638397 279.205566,444.136322 
	C277.655670,445.612427 276.327240,447.321075 274.479431,449.427307 
	C272.053131,454.928650 269.751923,459.832153 268.105591,464.946503 
	C265.538757,472.920380 270.252563,480.804810 278.302490,481.671265 
	C284.773041,482.367737 291.333466,482.088867 297.210938,478.512970 
z"/>
<path fill="#FF500E" opacity="1.000000" stroke="none" 
	d="
M103.454086,466.008484 
	C103.377190,460.803314 103.738373,455.597321 103.772888,450.389221 
	C103.791000,447.655853 104.886932,446.385529 107.511894,446.287720 
	C117.790276,445.904694 128.065857,445.748779 137.918716,449.344299 
	C139.795471,450.029144 141.388092,451.492676 143.111816,452.596954 
	C143.092468,453.215851 143.073120,453.834747 143.053772,454.453644 
	C136.426575,455.989838 129.857605,457.912415 123.151215,458.923096 
	C118.851990,459.571075 114.349792,458.788269 109.939201,458.805450 
	C105.706291,458.821930 105.059090,461.850677 104.943436,465.595459 
	C104.563049,466.004028 104.159790,466.005432 103.454086,466.008484 
z"/>
<path fill="#FFF3F3" opacity="1.000000" stroke="none" 
	d="
M418.211792,472.178406 
	C414.717804,476.848969 411.652985,481.438690 407.948456,485.435516 
	C404.267517,489.406921 400.223297,488.319244 399.432037,483.044006 
	C398.453796,476.522247 398.488647,469.850464 398.037323,463.246826 
	C397.851959,460.534363 397.540131,457.830536 397.285828,455.122803 
	C396.830902,454.995544 396.376007,454.868286 395.921112,454.741058 
	C393.517273,458.006714 390.992035,461.190918 388.735565,464.555420 
	C384.395355,471.026672 380.336395,477.690430 375.865448,484.067322 
	C374.751465,485.656219 372.511505,486.455658 370.789062,487.617981 
	C369.688873,485.921875 367.780670,484.289185 367.641663,482.517609 
	C367.241943,477.423492 367.580231,472.273285 367.585541,467.145081 
	C367.591156,461.698486 367.918518,456.214905 367.381958,450.819427 
	C367.074799,447.730835 367.909882,445.206665 370.480072,445.247131 
	C372.049591,445.271820 374.762817,448.386353 374.899414,450.263275 
	C375.422699,457.453278 375.111084,464.704071 375.111084,473.024353 
	C376.586517,470.831940 377.594910,469.283356 378.653229,467.769684 
	C382.910767,461.680267 386.874023,455.350739 391.539978,449.591095 
	C396.016449,444.065430 400.510559,444.835663 403.060028,451.507660 
	C404.435333,455.106842 404.736084,459.202179 405.020081,463.110107 
	C405.339386,467.503754 405.093536,471.938416 406.221313,476.796692 
	C407.270782,475.479767 408.427979,474.233978 409.351898,472.834198 
	C414.543335,464.968445 419.538116,456.966034 424.981903,449.280792 
	C425.814514,448.105377 429.014587,447.519012 430.414368,448.172089 
	C431.567688,448.710114 432.475098,451.673279 432.110870,453.241028 
	C430.434265,460.458496 429.708588,467.640106 432.076508,474.750946 
	C434.031128,480.620728 437.313416,481.145203 441.535156,476.850128 
	C443.538361,474.812073 445.452240,469.964874 448.724152,473.019012 
	C452.198151,476.261810 447.706299,479.165039 445.647430,481.608704 
	C439.136658,489.336243 428.390869,488.260376 425.961548,477.552856 
	C425.169952,474.063782 424.005524,470.659302 422.612152,465.832428 
	C420.783569,468.415344 419.572083,470.126526 418.211792,472.178406 
z"/>
<path fill="#FFF1F1" opacity="1.000000" stroke="none" 
	d="
M345.397461,446.801361 
	C357.776886,452.039764 360.775177,466.819061 352.770050,478.483276 
	C348.110626,485.272400 341.234344,489.088745 333.686127,490.960846 
	C328.297974,492.297272 322.858307,491.234344 322.102081,483.915588 
	C321.595276,479.010742 322.459503,473.930756 323.015808,468.963348 
	C323.305206,466.379181 324.389587,463.894653 324.883118,461.320679 
	C326.130066,454.817474 330.606995,450.306213 335.347260,446.637970 
	C337.374298,445.069336 341.758606,446.546814 345.397461,446.801361 
M349.411438,460.444733 
	C348.116547,458.519562 347.167023,456.143188 345.421356,454.806915 
	C343.928101,453.663879 340.371124,452.660797 339.696747,453.397949 
	C332.641876,461.109314 328.130585,470.081421 327.870605,480.814697 
	C327.795563,483.913391 329.609192,484.258484 332.094208,484.127045 
	C341.007019,483.655670 354.121277,473.191437 349.411438,460.444733 
z"/>
<path fill="#FF4A06" opacity="1.000000" stroke="none" 
	d="
M297.044250,478.186646 
	C291.333466,482.088867 284.773041,482.367737 278.302490,481.671265 
	C270.252563,480.804810 265.538757,472.920380 268.105591,464.946503 
	C269.751923,459.832153 272.053131,454.928650 274.352997,449.738678 
	C282.056030,458.984589 289.466797,468.422455 297.044250,478.186646 
z"/>
<path fill="#FF4702" opacity="1.000000" stroke="none" 
	d="
M217.977310,292.925537 
	C207.775299,304.312836 194.087265,307.875427 181.168243,302.746674 
	C168.654770,297.778992 160.577576,285.316742 161.032211,271.678955 
	C161.473145,258.452454 170.394836,246.737061 183.195251,242.575867 
	C196.304047,238.314438 210.583374,242.929367 218.764145,254.071396 
	C227.284363,265.675751 227.065002,280.230652 217.977310,292.925537 
z"/>
<path fill="#FF4803" opacity="1.000000" stroke="none" 
	d="
M257.032623,379.797913 
	C232.991714,380.078857 210.257950,374.549774 188.674774,364.170227 
	C181.728287,360.829651 179.412262,354.348724 182.404678,348.012817 
	C185.335770,341.806793 192.061981,339.353607 198.841888,342.534027 
	C217.962952,351.503632 238.004547,356.121338 259.571533,356.435852 
	C259.015778,364.546417 258.024200,372.172180 257.032623,379.797913 
z"/>
<path fill="#FA0303" opacity="1.000000" stroke="none" 
	d="
M257.486053,379.874023 
	C258.024200,372.172180 259.015778,364.546417 260.030884,356.512695 
	C279.183899,355.037170 297.524231,350.853668 314.931915,342.654144 
	C321.784393,339.426422 328.858978,342.050873 331.822693,348.373993 
	C334.631470,354.366516 331.903381,360.997406 324.920837,364.380157 
	C303.781097,374.621460 281.424744,379.742340 257.486053,379.874023 
z"/>
<path fill="#FF4702" opacity="1.000000" stroke="none" 
	d="
M295.880249,292.204590 
	C285.136261,279.787506 287.200012,259.690430 300.360168,248.579269 
	C313.874390,237.169174 334.131592,238.808655 345.361206,252.405304 
	C347.545746,255.050339 348.999634,258.298828 350.428558,261.650909 
	C339.040161,266.897217 327.674866,271.133301 317.101105,276.836823 
	C309.481354,280.946991 302.915955,287.011688 295.880249,292.204590 
z"/>
<path fill="#FA0202" opacity="1.000000" stroke="none" 
	d="
M295.963196,292.521912 
	C302.915955,287.011688 309.481354,280.946991 317.101105,276.836823 
	C327.674866,271.133301 339.040161,266.897217 350.442078,261.997864 
	C356.349548,276.295258 350.659668,292.561798 337.340179,300.492737 
	C323.558838,308.698639 306.665985,305.567719 295.963196,292.521912 
z"/>
<path fill="#FF6227" opacity="1.000000" stroke="none" 
	d="
M179.606323,458.403320 
	C178.438416,458.965942 177.586594,459.362427 176.561798,459.839447 
	C177.689926,453.894714 181.671692,449.938751 186.908844,449.728424 
	C186.345352,454.167267 183.615356,456.572784 179.606323,458.403320 
z"/>
<path fill="#FF4C09" opacity="1.000000" stroke="none" 
	d="
M227.401627,467.380402 
	C223.075439,473.788269 217.849243,478.484650 211.152939,481.312714 
	C210.507019,481.015533 209.861115,480.718353 209.215195,480.421173 
	C210.357864,474.769958 211.340530,469.079681 212.707703,463.483307 
	C213.440186,460.485016 214.584381,457.520905 215.987991,454.768372 
	C218.163376,450.502289 222.297867,449.630157 226.567703,449.987457 
	C233.059982,450.530762 235.416702,455.356445 231.977661,460.598724 
	C230.549103,462.776337 229.067825,464.919403 227.401627,467.380402 
z"/>
<path fill="#FA0707" opacity="1.000000" stroke="none" 
	d="
M349.477783,460.823792 
	C354.121277,473.191437 341.007019,483.655670 332.094208,484.127045 
	C329.609192,484.258484 327.795563,483.913391 327.870605,480.814697 
	C328.130585,470.081421 332.641876,461.109314 339.696747,453.397949 
	C340.371124,452.660797 343.928101,453.663879 345.421356,454.806915 
	C347.167023,456.143188 348.116547,458.519562 349.477783,460.823792 
z"/>
</svg>