<?xml version="1.0" standalone="no"?>
<!DOCTYPE svg PUBLIC "-//W3C//DTD SVG 20010904//EN"
 "http://www.w3.org/TR/2001/REC-SVG-20010904/DTD/svg10.dtd">
<svg version="1.0" xmlns="http://www.w3.org/2000/svg"
 width="512.000000pt" height="512.000000pt" viewBox="0 0 512.000000 512.000000"
 preserveAspectRatio="xMidYMid meet">

<g transform="translate(0.000000,512.000000) scale(0.100000,-0.100000)"
fill="#000000" stroke="none">
<path d="M3988 5103 c7 -3 16 -2 19 1 4 3 -2 6 -13 5 -11 0 -14 -3 -6 -6z"/>
<path d="M4055 5086 c335 -105 551 -458 491 -801 -53 -309 -277 -535 -586
-591 -57 -10 -210 -13 -645 -14 l-570 0 -39 -148 c-22 -81 -41 -152 -43 -158
-3 -7 29 -14 94 -18 316 -23 647 -130 908 -292 l81 -50 48 33 c173 119 425 90
567 -65 90 -98 125 -200 116 -331 -9 -132 -69 -242 -177 -324 l-64 -49 2 -101
c13 -610 -608 -1122 -1462 -1208 -167 -16 -448 -7 -606 21 -403 71 -727 228
-971 470 -223 221 -318 434 -319 710 l0 115 -35 19 c-45 25 -127 111 -153 162
-64 125 -69 280 -14 398 37 79 113 163 183 201 155 84 357 70 488 -33 l24 -19
61 39 c99 65 312 164 441 207 136 44 283 76 430 92 55 6 100 11 101 12 0 1 18
67 39 147 21 80 40 151 43 159 4 12 -23 13 -174 8 -306 -10 -561 -65 -841
-183 -297 -124 -533 -283 -768 -519 -208 -208 -339 -390 -465 -650 -161 -331
-235 -644 -234 -990 0 -269 35 -427 134 -625 178 -353 487 -590 888 -682 l97
-22 1402 -3 c1544 -4 1501 -6 1699 58 395 125 708 438 833 833 64 198 62 155
58 1699 -3 1389 -3 1403 -24 1495 -63 272 -169 468 -353 652 -177 177 -392
296 -623 345 -83 18 -117 18 -62 1z m-1616 -4180 c21 -25 24 -146 7 -291 -8
-77 -12 -168 -9 -203 5 -55 9 -63 29 -68 31 -8 32 -44 1 -79 -43 -50 -94 9
-105 122 l-7 68 -20 -31 c-43 -68 -136 -162 -181 -183 -45 -21 -46 -22 -77 -3
-49 28 -59 55 -54 147 5 81 41 211 73 260 23 35 91 64 144 61 53 -3 77 -11
108 -39 l22 -20 2 69 c0 38 2 94 2 124 1 30 5 61 9 68 11 16 42 15 56 -2z
m507 -147 c77 -39 98 -72 95 -151 -1 -20 -9 -32 -30 -42 -26 -14 -30 -14 -46
4 -10 11 -20 40 -23 66 -4 39 -9 48 -34 59 -45 18 -105 12 -134 -16 -40 -38
-83 -122 -97 -190 -12 -59 -12 -67 6 -105 14 -30 29 -44 56 -54 87 -32 236 2
325 75 70 57 90 67 104 53 17 -17 -4 -58 -51 -100 -23 -21 -46 -38 -51 -38 -6
0 -27 -12 -47 -26 -50 -34 -164 -64 -226 -59 -57 5 -123 25 -123 37 0 4 -6 8
-12 8 -22 1 -71 92 -76 141 -7 75 56 237 116 297 78 78 150 90 248 41z m-1766
-15 c148 -6 250 -35 291 -82 16 -18 29 -43 29 -55 0 -34 -57 -80 -125 -102
-33 -10 -65 -22 -71 -27 -6 -4 -21 -7 -35 -6 -67 3 -70 1 -34 -34 72 -72 135
-99 239 -105 102 -6 146 13 158 67 11 49 19 109 21 150 2 27 6 35 20 34 11 -1
25 12 37 36 24 48 90 100 125 100 17 0 39 -12 61 -34 42 -42 44 -81 9 -143
-29 -48 -112 -103 -156 -103 -18 0 -29 -8 -37 -25 -42 -91 29 -156 115 -104
21 12 51 34 66 48 22 20 31 23 45 15 9 -6 18 -19 20 -28 5 -22 -36 -85 -62
-97 -11 -5 -39 -20 -61 -32 -37 -21 -44 -22 -90 -10 -34 8 -60 23 -81 46 l-31
34 -35 -18 c-18 -9 -54 -19 -79 -21 -24 -2 -49 -7 -56 -11 -6 -4 -14 -3 -18 3
-3 5 -16 10 -28 10 -30 0 -105 27 -146 52 -18 12 -70 52 -114 89 -45 38 -89
69 -99 69 -10 0 -18 5 -18 10 0 6 -5 10 -10 10 -7 0 -10 -39 -9 -105 2 -113
-6 -135 -46 -135 -22 0 -23 5 -29 93 -3 50 -5 140 -4 199 1 59 -1 111 -5 114
-4 4 -15 0 -25 -9 -16 -14 -19 -14 -38 1 -50 40 -31 86 41 96 24 4 47 12 51
18 4 6 24 8 53 4 25 -4 98 -9 161 -12z m2275 -83 c41 -17 82 -67 99 -122 34
-110 -34 -234 -162 -295 -97 -47 -160 -33 -184 41 -11 36 -8 116 6 143 8 15
17 49 21 75 4 28 18 61 31 77 13 15 24 31 24 35 0 9 45 52 59 56 21 7 77 2
106 -10z m274 5 c7 -8 12 -61 13 -134 0 -67 5 -119 10 -116 4 3 20 29 35 57
14 29 37 66 52 84 14 17 41 50 60 73 28 35 38 41 65 38 26 -3 35 -11 55 -51
21 -42 23 -61 22 -153 -1 -118 2 -121 55 -40 29 43 59 88 114 166 6 8 16 26
23 40 15 30 44 36 72 16 18 -13 18 -18 7 -48 -14 -40 -16 -176 -3 -211 24 -63
64 -67 107 -10 18 24 33 33 47 31 38 -5 32 -41 -16 -94 -43 -47 -47 -49 -96
-48 -43 0 -55 5 -69 24 -29 42 -51 103 -51 149 l-1 44 -22 -25 c-13 -14 -34
-46 -48 -72 -27 -52 -110 -136 -134 -136 -35 0 -51 49 -54 170 -1 63 -5 126
-8 139 l-5 24 -25 -24 c-14 -13 -42 -51 -62 -84 -57 -94 -138 -208 -155 -219
-12 -8 -21 -6 -34 7 -16 16 -18 39 -18 205 0 103 4 193 9 200 11 16 41 15 55
-2z"/>
<path d="M2167 595 c-15 -14 -27 -27 -27 -28 0 -1 -9 -34 -21 -72 -23 -75 -32
-162 -19 -170 19 -12 170 122 170 150 0 7 7 15 15 19 8 3 15 11 15 17 0 7 7
20 16 30 54 60 -87 111 -149 54z"/>
<path d="M1038 654 c-5 -4 -8 -39 -8 -78 0 -71 1 -71 19 -47 14 19 24 22 47
17 71 -16 320 31 311 59 -8 25 -113 49 -237 53 -69 2 -128 0 -132 -4z"/>
<path d="M1794 594 c-39 -41 -44 -60 -11 -43 29 15 57 40 68 61 18 33 -21 20
-57 -18z"/>
<path d="M3375 579 c-9 -16 -19 -29 -23 -29 -11 0 -45 -70 -66 -133 -18 -54
-21 -113 -6 -122 21 -13 92 8 132 38 89 68 104 151 42 233 -33 45 -61 49 -79
13z"/>
<path d="M1841 2705 c-70 -20 -111 -46 -160 -101 -72 -82 -94 -203 -56 -314
25 -76 109 -160 185 -185 123 -42 241 -15 331 74 126 127 126 315 0 442 -83
83 -193 113 -300 84z"/>
<path d="M3121 2705 c-131 -37 -211 -130 -236 -276 -4 -22 0 -62 10 -100 26
-105 80 -172 175 -218 114 -54 263 -27 355 64 92 93 118 242 62 357 -68 138
-225 212 -366 173z"/>
<path d="M1872 1703 c-40 -19 -62 -59 -62 -110 0 -55 23 -81 104 -118 163 -74
341 -119 531 -135 243 -21 477 16 715 112 100 41 137 70 151 117 16 53 -10
108 -64 135 -45 21 -63 18 -199 -39 -129 -53 -278 -84 -438 -92 -207 -9 -381
23 -584 107 -53 22 -102 40 -108 40 -7 0 -28 -8 -46 -17z"/>
</g>
</svg>
