<?xml version="1.0" standalone="no"?>
<!DOCTYPE svg PUBLIC "-//W3C//DTD SVG 20010904//EN"
 "http://www.w3.org/TR/2001/REC-SVG-20010904/DTD/svg10.dtd">
<svg version="1.0" xmlns="http://www.w3.org/2000/svg"
 width="150.000000pt" height="150.000000pt" viewBox="0 0 150.000000 150.000000"
 preserveAspectRatio="xMidYMid meet">

<g transform="translate(0.000000,150.000000) scale(0.100000,-0.100000)"
fill="#000000" stroke="none">
<path d="M1225 1472 c47 -30 93 -88 101 -127 20 -109 -22 -201 -111 -241 -52
-24 -61 -25 -230 -22 l-175 3 -13 -45 -13 -45 85 -17 c48 -10 118 -33 158 -53
71 -35 72 -35 106 -19 66 31 153 -8 177 -81 15 -45 -2 -106 -38 -137 -22 -19
-27 -32 -29 -72 -5 -100 -82 -204 -201 -269 -114 -62 -316 -86 -447 -52 -194
50 -333 182 -338 320 -2 38 -8 53 -34 79 -42 43 -51 93 -27 143 36 72 111 101
175 68 28 -15 33 -14 102 20 40 19 106 42 147 51 41 8 78 18 82 22 3 4 10 24
13 45 l7 37 -41 0 c-78 0 -195 -31 -289 -76 -77 -37 -108 -60 -181 -132 -74
-73 -95 -102 -135 -182 -122 -248 -91 -489 80 -613 99 -72 96 -72 604 -72
l455 0 57 27 c80 37 152 107 191 187 l32 66 3 422 c2 253 -1 445 -7 477 -26
143 -133 261 -271 300 -23 7 -22 6 5 -12z m-505 -1279 c0 -43 3 -88 6 -101 5
-16 2 -22 -10 -22 -8 0 -18 11 -22 25 l-6 25 -35 -30 c-29 -26 -37 -29 -50
-18 -11 9 -14 24 -10 56 6 55 32 85 69 80 26 -4 28 -2 28 29 0 23 5 33 15 33
12 0 15 -15 15 -77z m-294 5 c24 -24 11 -46 -32 -54 l-38 -7 23 -18 c13 -11
38 -19 56 -19 33 0 45 13 45 49 0 24 44 64 66 59 40 -7 24 -61 -23 -79 -26
-10 -31 -39 -8 -39 8 0 24 5 35 12 27 17 37 2 15 -22 -17 -19 -64 -27 -78 -14
-3 3 -27 7 -54 8 -35 1 -58 8 -84 29 -45 34 -49 34 -49 -3 0 -18 -5 -30 -13
-30 -9 0 -14 17 -16 52 -1 29 -6 55 -12 56 -17 6 -9 32 11 40 32 12 138 -2
156 -20z m454 12 c11 -11 17 -26 14 -35 -9 -21 -25 -19 -31 6 -4 15 -12 19
-32 17 -20 -2 -29 -11 -37 -38 -6 -19 -9 -40 -7 -47 8 -20 77 -16 106 7 30 24
37 25 37 6 0 -23 -63 -56 -108 -56 -33 0 -45 5 -58 25 -15 23 -15 31 -4 66 22
66 79 90 120 49z m150 -30 c25 -25 25 -50 0 -83 -42 -54 -108 -39 -93 22 18
78 53 101 93 61z m71 -17 c0 -30 2 -34 8 -18 5 11 19 29 31 40 21 19 22 19 36
0 8 -10 14 -30 14 -44 0 -23 2 -22 31 17 35 47 50 47 43 -1 -6 -43 8 -66 30
-47 9 7 20 10 24 6 11 -11 -37 -46 -54 -39 -8 3 -17 16 -20 30 l-6 24 -28 -33
c-33 -39 -47 -32 -52 27 l-3 40 -30 -44 c-16 -25 -34 -45 -40 -45 -5 -1 -11
27 -13 62 -2 51 0 62 13 62 11 0 15 -11 16 -37z"/>
<path d="M630 161 c-5 -11 -10 -30 -10 -43 1 -22 2 -21 31 10 16 18 27 37 24
42 -10 16 -34 11 -45 -9z"/>
<path d="M306 175 c-6 -17 19 -20 74 -9 22 5 28 9 18 15 -23 15 -85 10 -92 -6z"/>
<path d="M982 158 c-6 -7 -13 -25 -17 -41 -6 -21 -4 -27 8 -27 23 0 48 30 45
53 -4 25 -21 32 -36 15z"/>
<path d="M805 1310 c-3 -6 1 -7 9 -4 18 7 21 14 7 14 -6 0 -13 -4 -16 -10z"/>
<path d="M1145 1290 c10 -11 20 -20 23 -20 3 0 -3 9 -13 20 -10 11 -20 20 -23
20 -3 0 3 -9 13 -20z"/>
<path d="M1120 1130 c-9 -6 -10 -10 -3 -10 6 0 15 5 18 10 8 12 4 12 -15 0z"/>
<path d="M1068 1113 c6 -2 18 -2 25 0 6 3 1 5 -13 5 -14 0 -19 -2 -12 -5z"/>
<path d="M512 774 c-78 -54 -23 -175 71 -157 63 12 89 102 42 148 -28 29 -79
33 -113 9z"/>
<path d="M875 765 c-48 -47 -21 -135 44 -150 61 -13 121 48 105 109 -15 63
-103 88 -149 41z"/>
<path d="M541 486 c-20 -24 -1 -45 62 -65 92 -29 156 -34 235 -17 113 24 155
54 118 85 -11 9 -28 7 -75 -9 -81 -27 -192 -27 -263 0 -63 24 -62 24 -77 6z"/>
</g>
</svg>
