<?xml version="1.0" standalone="no"?>
<!DOCTYPE svg PUBLIC "-//W3C//DTD SVG 20010904//EN"
 "http://www.w3.org/TR/2001/REC-SVG-20010904/DTD/svg10.dtd">
<svg version="1.0" xmlns="http://www.w3.org/2000/svg"
 width="19.000000pt" height="19.000000pt" viewBox="0 0 19.000000 19.000000"
 preserveAspectRatio="xMidYMid meet">

<g transform="translate(0.000000,19.000000) scale(0.100000,-0.100000)"
fill="#000000" stroke="none">
<path d="M108 173 c6 -2 18 -2 25 0 6 3 1 5 -13 5 -14 0 -19 -2 -12 -5z"/>
<path d="M161 153 c-7 -8 -22 -12 -33 -10 -12 3 -18 1 -15 -6 2 -6 14 -14 28
-17 32 -8 28 -47 -8 -77 -25 -20 -25 -22 -5 -16 12 3 28 0 36 -6 18 -16 26 6
26 72 0 63 -9 81 -29 60z"/>
<path d="M81 153 c-1 -6 -13 -16 -28 -21 -22 -8 -24 -11 -8 -11 28 -1 48 14
42 30 -3 8 -6 9 -6 2z"/>
<path d="M6 83 c-7 -32 13 -92 22 -65 2 6 13 12 25 12 20 1 20 2 4 11 -9 6
-23 25 -31 42 l-13 32 -7 -32z"/>
<path d="M110 90 c0 -5 5 -10 11 -10 5 0 7 5 4 10 -3 6 -8 10 -11 10 -2 0 -4
-4 -4 -10z"/>
<path d="M123 3 c9 -2 23 -2 30 0 6 3 -1 5 -18 5 -16 0 -22 -2 -12 -5z"/>
</g>
</svg>
