<?xml version="1.0" encoding="UTF-8"?>
<!DOCTYPE svg PUBLIC "-//W3C//DTD SVG 1.1//EN" "http://www.w3.org/Graphics/SVG/1.1/DTD/svg11.dtd">
<svg xmlns="http://www.w3.org/2000/svg" version="1.1" width="512px" height="512px" style="shape-rendering:geometricPrecision; text-rendering:geometricPrecision; image-rendering:optimizeQuality; fill-rule:evenodd; clip-rule:evenodd" xmlns:xlink="http://www.w3.org/1999/xlink">
<g><path style="opacity:1" fill="#ff7300" d="M 111.5,-0.5 C 205.833,-0.5 300.167,-0.5 394.5,-0.5C 427.178,7.34489 447.345,27.6782 455,60.5C 457.797,97.6643 442.297,123.831 408.5,139C 403.265,140.745 397.932,142.079 392.5,143C 352.835,143.5 313.168,143.667 273.5,143.5C 278.212,124.979 283.379,106.645 289,88.5C 304.483,92.747 319.983,97.0803 335.5,101.5C 342.134,121.482 355.801,129.649 376.5,126C 393.563,119.391 401.063,106.891 399,88.5C 392.797,70.1378 379.963,61.9712 360.5,64C 352.262,66.7686 345.262,71.2686 339.5,77.5C 324.183,73.337 308.849,69.1704 293.5,65C 280.725,63.1363 271.558,67.9696 266,79.5C 260.159,100.868 254.325,122.201 248.5,143.5C 163.9,142.72 96.0662,175.72 45,242.5C 19.4532,278.589 4.2865,318.589 -0.5,362.5C -0.5,278.833 -0.5,195.167 -0.5,111.5C 8.7041,57.4517 39.3708,21.6184 91.5,4C 98.2585,2.28494 104.925,0.784944 111.5,-0.5 Z"/></g>
<g><path style="opacity:0.996" fill="#ff4600" d="M 394.5,-0.5 C 396.167,-0.5 397.833,-0.5 399.5,-0.5C 453.548,8.7041 489.382,39.3708 507,91.5C 508.715,98.2585 510.215,104.925 511.5,111.5C 511.5,119.167 511.5,126.833 511.5,134.5C 507.662,179.869 486.328,214.202 447.5,237.5C 440.698,210.546 423.364,198.046 395.5,200C 387.673,201.913 380.673,205.413 374.5,210.5C 341.372,189.014 305.039,177.347 265.5,175.5C 267.849,164.772 270.515,154.105 273.5,143.5C 313.168,143.667 352.835,143.5 392.5,143C 397.932,142.079 403.265,140.745 408.5,139C 442.297,123.831 457.797,97.6643 455,60.5C 447.345,27.6782 427.178,7.34489 394.5,-0.5 Z"/></g>
<g><path style="opacity:1" fill="#fffefd" d="M 273.5,143.5 C 270.515,154.105 267.849,164.772 265.5,175.5C 305.039,177.347 341.372,189.014 374.5,210.5C 380.673,205.413 387.673,201.913 395.5,200C 423.364,198.046 440.698,210.546 447.5,237.5C 448.591,257.322 440.758,272.322 424,282.5C 425.489,318.061 412.989,347.561 386.5,371C 353.536,397.22 315.869,411.886 273.5,415C 268.845,415.499 264.179,415.666 259.5,415.5C 211.885,416.902 168.885,403.736 130.5,376C 99.9648,352.423 85.4648,321.257 87,282.5C 69.487,271.805 61.8203,256.139 64,235.5C 72.0996,208.196 90.2662,196.696 118.5,201C 125.228,202.863 131.228,206.03 136.5,210.5C 167.911,189.363 202.577,178.03 240.5,176.5C 242.757,165.397 245.424,154.397 248.5,143.5C 254.325,122.201 260.159,100.868 266,79.5C 271.558,67.9696 280.725,63.1363 293.5,65C 308.849,69.1704 324.183,73.337 339.5,77.5C 345.262,71.2686 352.262,66.7686 360.5,64C 379.963,61.9712 392.797,70.1378 399,88.5C 401.063,106.891 393.563,119.391 376.5,126C 355.801,129.649 342.134,121.482 335.5,101.5C 319.983,97.0803 304.483,92.747 289,88.5C 283.379,106.645 278.212,124.979 273.5,143.5 Z"/></g>
<g><path style="opacity:1" fill="#fa0301" d="M 511.5,134.5 C 511.5,222.833 511.5,311.167 511.5,399.5C 502.296,453.548 471.629,489.382 419.5,507C 412.741,508.715 406.075,510.215 399.5,511.5C 389.167,511.5 378.833,511.5 368.5,511.5C 346.372,507.954 326.039,499.787 307.5,487C 305.576,485.25 303.909,483.417 302.5,481.5C 306.409,478.62 310.409,475.62 314.5,472.5C 315.944,470.392 316.61,468.059 316.5,465.5C 314.738,465.357 313.071,465.691 311.5,466.5C 306.869,471.165 301.536,474.498 295.5,476.5C 290.199,471.029 285.033,465.362 280,459.5C 277.128,455.817 274.962,451.817 273.5,447.5C 278.557,439.941 285.057,438.608 293,443.5C 293.333,446.167 293.667,448.833 294,451.5C 296.477,456.368 299.477,456.701 303,452.5C 304.426,447.243 303.259,442.743 299.5,439C 292.676,433.899 285.01,432.232 276.5,434C 274.15,435.948 271.816,437.781 269.5,439.5C 264.603,432.345 261.269,424.345 259.5,415.5C 264.179,415.666 268.845,415.499 273.5,415C 315.869,411.886 353.536,397.22 386.5,371C 412.989,347.561 425.489,318.061 424,282.5C 440.758,272.322 448.591,257.322 447.5,237.5C 486.328,214.202 507.662,179.869 511.5,134.5 Z"/></g>
<g><path style="opacity:0.998" fill="#ff4701" d="M 248.5,143.5 C 245.424,154.397 242.757,165.397 240.5,176.5C 202.577,178.03 167.911,189.363 136.5,210.5C 131.228,206.03 125.228,202.863 118.5,201C 90.2662,196.696 72.0996,208.196 64,235.5C 61.8203,256.139 69.487,271.805 87,282.5C 85.4648,321.257 99.9648,352.423 130.5,376C 168.885,403.736 211.885,416.902 259.5,415.5C 261.269,424.345 264.603,432.345 269.5,439.5C 261.093,449.566 257.593,461.232 259,474.5C 263.066,484.205 270.399,488.538 281,487.5C 283.833,487.167 286.667,486.833 289.5,486.5C 293.926,485.146 298.26,483.479 302.5,481.5C 303.909,483.417 305.576,485.25 307.5,487C 326.039,499.787 346.372,507.954 368.5,511.5C 282.833,511.5 197.167,511.5 111.5,511.5C 57.4517,502.296 21.6184,471.629 4,419.5C 2.28494,412.741 0.784944,406.075 -0.5,399.5C -0.5,387.167 -0.5,374.833 -0.5,362.5C 4.2865,318.589 19.4532,278.589 45,242.5C 96.0662,175.72 163.9,142.72 248.5,143.5 Z"/></g>
<g><path style="opacity:1" fill="#ff4702" d="M 184.5,239.5 C 209.889,238.396 222.723,250.396 223,275.5C 218.316,295.826 205.483,304.993 184.5,303C 168.449,297.916 160.116,286.916 159.5,270C 161.114,254.248 169.447,244.081 184.5,239.5 Z"/></g>
<g><path style="opacity:1" fill="#ff4702" d="M 349.5,260.5 C 339.716,262.707 330.382,266.207 321.5,271C 311.783,276.557 302.783,283.057 294.5,290.5C 282.547,271.511 285.88,255.677 304.5,243C 319.266,237.02 332.433,239.52 344,250.5C 346.099,253.7 347.933,257.033 349.5,260.5 Z"/></g>
<g><path style="opacity:1" fill="#fa0703" d="M 349.5,260.5 C 354.199,289.309 341.866,303.476 312.5,303C 304.824,301.015 298.824,296.849 294.5,290.5C 302.783,283.057 311.783,276.557 321.5,271C 330.382,266.207 339.716,262.707 349.5,260.5 Z"/></g>
<g><path style="opacity:1" fill="#ff4804" d="M 258.5,354.5 C 256.567,362.368 255.567,370.368 255.5,378.5C 230.99,378.083 207.656,372.583 185.5,362C 177.07,353.899 177.737,346.565 187.5,340C 188.667,339.833 189.833,339.667 191,339.5C 201.989,343.739 213.156,347.573 224.5,351C 235.665,353.809 246.998,354.976 258.5,354.5 Z"/></g>
<g><path style="opacity:1" fill="#fa0804" d="M 255.5,378.5 C 255.567,370.368 256.567,362.368 258.5,354.5C 279.453,353.262 299.453,348.262 318.5,339.5C 329.87,341.578 333.37,347.911 329,358.5C 324.874,362.482 320.041,365.315 314.5,367C 295.57,374.619 275.903,378.453 255.5,378.5 Z"/></g>
<g><path style="opacity:1" fill="#fff6f3" d="M 236.5,475.5 C 236.665,471.818 236.499,468.152 236,464.5C 235.283,465.044 234.783,465.711 234.5,466.5C 230.002,473.289 224.668,479.455 218.5,485C 210.929,490.822 205.429,489.322 202,480.5C 201.312,469.655 203.312,459.321 208,449.5C 211.294,443.39 216.461,440.39 223.5,440.5C 228.41,441.553 232.576,443.886 236,447.5C 237.079,444.288 237.579,440.955 237.5,437.5C 237.199,432.344 236.866,427.344 236.5,422.5C 238.663,420.28 241.163,419.947 244,421.5C 244.5,425.5 245,429.5 245.5,433.5C 242.767,448.098 242.1,462.764 243.5,477.5C 245.948,477.01 247.615,477.843 248.5,480C 244.616,488.591 240.782,488.424 237,479.5C 236.51,478.207 236.343,476.873 236.5,475.5 Z"/></g>
<g><path style="opacity:1" fill="#fff2f0" d="M 273.5,447.5 C 268.326,454.191 265.826,461.857 266,470.5C 268.248,478.109 273.415,481.442 281.5,480.5C 284.518,480.665 287.518,480.498 290.5,480C 292.653,479.901 294.319,479.067 295.5,477.5C 295.5,477.167 295.5,476.833 295.5,476.5C 301.536,474.498 306.869,471.165 311.5,466.5C 313.071,465.691 314.738,465.357 316.5,465.5C 316.61,468.059 315.944,470.392 314.5,472.5C 310.409,475.62 306.409,478.62 302.5,481.5C 298.26,483.479 293.926,485.146 289.5,486.5C 286.667,486.833 283.833,487.167 281,487.5C 270.399,488.538 263.066,484.205 259,474.5C 257.593,461.232 261.093,449.566 269.5,439.5C 271.816,437.781 274.15,435.948 276.5,434C 285.01,432.232 292.676,433.899 299.5,439C 303.259,442.743 304.426,447.243 303,452.5C 299.477,456.701 296.477,456.368 294,451.5C 293.667,448.833 293.333,446.167 293,443.5C 285.057,438.608 278.557,439.941 273.5,447.5 Z"/></g>
<g><path style="opacity:1" fill="#fff3ef" d="M 97.5,436.5 C 109.508,437.122 121.508,437.955 133.5,439C 136.977,440.8 140.644,442.133 144.5,443C 151.167,448 151.167,453 144.5,458C 136.263,460.651 127.93,462.985 119.5,465C 127.037,474.102 136.704,478.935 148.5,479.5C 152.633,479.201 156.633,478.368 160.5,477C 163.684,469.588 165.351,461.755 165.5,453.5C 169.453,452.985 171.619,450.652 172,446.5C 175.742,441.709 180.576,439.876 186.5,441C 191.223,444.254 192.723,448.754 191,454.5C 186.685,462.486 180.019,466.82 171,467.5C 169.675,471.428 169.342,475.428 170,479.5C 172.995,482.265 176.495,483.098 180.5,482C 184.344,479.484 188.178,476.984 192,474.5C 194.167,474.669 195.334,475.836 195.5,478C 193.848,480.323 192.181,482.656 190.5,485C 186.689,487.407 182.689,489.574 178.5,491.5C 170.95,491.811 165.783,488.478 163,481.5C 161.693,482.772 160.193,483.772 158.5,484.5C 146.218,487.818 134.552,485.985 123.5,479C 118.5,474.667 113.5,470.333 108.5,466C 106.866,465.506 105.199,465.34 103.5,465.5C 103.22,462.728 103.887,460.228 105.5,458C 112.135,458.349 118.802,458.016 125.5,457C 128.638,455.756 131.972,455.089 135.5,455C 137.345,453.577 139.345,452.41 141.5,451.5C 141.023,450.522 140.357,449.689 139.5,449C 127.863,444.724 115.863,443.39 103.5,445C 102.123,448.956 101.79,452.956 102.5,457C 101.706,466.132 101.206,475.299 101,484.5C 99.4912,486.919 97.3245,487.919 94.5,487.5C 93.473,473.842 93.473,460.175 94.5,446.5C 92.2776,446.178 90.4443,446.845 89,448.5C 83.7368,445.968 83.2368,442.802 87.5,439C 91.1789,438.974 94.5122,438.14 97.5,436.5 Z"/></g>
<g><path style="opacity:1" fill="#fff1f1" d="M 332.5,444.5 C 350.976,444.477 358.143,453.477 354,471.5C 348.981,482.448 340.481,488.448 328.5,489.5C 321.299,488.126 318.299,483.626 319.5,476C 321.38,469.644 322.88,463.144 324,456.5C 326.935,452.398 329.768,448.398 332.5,444.5 Z"/></g>
<g><path style="opacity:1" fill="#fff3f2" d="M 391.5,446.5 C 393.764,445.781 396.097,445.448 398.5,445.5C 401.028,447.89 402.528,450.89 403,454.5C 403.169,461.524 403.669,468.524 404.5,475.5C 411.496,466.178 417.996,456.512 424,446.5C 426.881,444.972 429.214,445.638 431,448.5C 429.486,455.95 429.153,463.616 430,471.5C 430.561,473.725 431.561,475.725 433,477.5C 434.388,478.554 435.888,478.72 437.5,478C 439.407,474.681 442.074,472.181 445.5,470.5C 447.5,470.5 448.5,471.5 448.5,473.5C 445.911,479.702 441.411,483.702 435,485.5C 431.617,485.475 428.95,484.142 427,481.5C 423.7,475.599 422.033,469.266 422,462.5C 418.03,468.479 414.03,474.479 410,480.5C 402.439,489.551 398.106,488.218 397,476.5C 396.667,469.167 396.333,461.833 396,454.5C 395.586,454.043 395.086,453.709 394.5,453.5C 386.938,462.942 380.105,472.942 374,483.5C 370.193,487.79 367.527,487.123 366,481.5C 365.833,478.833 365.667,476.167 365.5,473.5C 366.476,464.122 366.642,454.789 366,445.5C 368.333,442.833 370.667,442.833 373,445.5C 373.332,454.244 373.499,462.91 373.5,471.5C 376.505,467.494 379.005,463.16 381,458.5C 384.394,454.281 387.894,450.281 391.5,446.5 Z"/></g>
<g><path style="opacity:1" fill="#fea2a0" d="M 398.5,445.5 C 396.097,445.448 393.764,445.781 391.5,446.5C 392.312,445.007 393.645,444.34 395.5,444.5C 396.726,444.52 397.726,444.853 398.5,445.5 Z"/></g>
<g><path style="opacity:1" fill="#ff622b" d="M 182.5,447.5 C 183.5,447.5 184.5,447.5 185.5,447.5C 184.315,453.022 180.982,456.689 175.5,458.5C 175.974,453.932 178.307,450.266 182.5,447.5 Z"/></g>
<g><path style="opacity:1" fill="#ff4907" d="M 273.5,447.5 C 274.962,451.817 277.128,455.817 280,459.5C 285.033,465.362 290.199,471.029 295.5,476.5C 295.5,476.833 295.5,477.167 295.5,477.5C 290.748,478.667 286.082,479.667 281.5,480.5C 273.415,481.442 268.248,478.109 266,470.5C 265.826,461.857 268.326,454.191 273.5,447.5 Z"/></g>
<g><path style="opacity:1" fill="#ff4c0b" d="M 218.5,448.5 C 224.957,447.088 229.957,449.088 233.5,454.5C 228.811,463.043 222.811,470.543 215.5,477C 213.541,477.931 211.541,478.764 209.5,479.5C 208.341,475.878 208.175,472.211 209,468.5C 210.532,464.238 211.865,459.905 213,455.5C 214.666,453.004 216.5,450.671 218.5,448.5 Z"/></g>
<g><path style="opacity:1" fill="#fa0f08" d="M 337.5,451.5 C 339.199,451.34 340.866,451.506 342.5,452C 352.097,462.715 350.763,472.048 338.5,480C 334.702,481.783 330.702,482.616 326.5,482.5C 326.788,470.971 330.454,460.637 337.5,451.5 Z"/></g>
<g><path style="opacity:1" fill="#ffa17f" d="M 236.5,475.5 C 235.833,472.5 235.167,469.5 234.5,466.5C 234.783,465.711 235.283,465.044 236,464.5C 236.499,468.152 236.665,471.818 236.5,475.5 Z"/></g>
<g><path style="opacity:1" fill="#ffb69b" d="M 295.5,477.5 C 294.319,479.067 292.653,479.901 290.5,480C 287.518,480.498 284.518,480.665 281.5,480.5C 286.082,479.667 290.748,478.667 295.5,477.5 Z"/></g>
</svg>
